<?xml version="1.0" encoding="UTF-8" standalone="no"?>
<!-- Created with Inkscape (http://www.inkscape.org/) -->

<svg
   xmlns:dc="http://purl.org/dc/elements/1.1/"
   xmlns:cc="http://creativecommons.org/ns#"
   xmlns:rdf="http://www.w3.org/1999/02/22-rdf-syntax-ns#"
   xmlns:svg="http://www.w3.org/2000/svg"
   xmlns="http://www.w3.org/2000/svg"
   xmlns:sodipodi="http://sodipodi.sourceforge.net/DTD/sodipodi-0.dtd"
   xmlns:inkscape="http://www.inkscape.org/namespaces/inkscape"
   width="112.65482mm"
   height="78.46315mm"
   viewBox="0 0 112.65482 78.46315"
   version="1.1"
   id="svg8"
   sodipodi:docname="banner-img-03.svg"
   inkscape:version="0.92.4 (5da689c313, 2019-01-14)">
  <defs
     id="defs2" />
  <sodipodi:namedview
     id="base"
     pagecolor="#ffffff"
     bordercolor="#666666"
     borderopacity="1.0"
     inkscape:pageopacity="0.0"
     inkscape:pageshadow="2"
     inkscape:zoom="0.7"
     inkscape:cx="169.87142"
     inkscape:cy="95.626789"
     inkscape:document-units="mm"
     inkscape:current-layer="layer1"
     showgrid="false"
     inkscape:window-width="1600"
     inkscape:window-height="837"
     inkscape:window-x="-8"
     inkscape:window-y="-8"
     inkscape:window-maximized="1" />
  <metadata
     id="metadata5">
    <rdf:RDF>
      <cc:Work
         rdf:about="">
        <dc:format>image/svg+xml</dc:format>
        <dc:type
           rdf:resource="http://purl.org/dc/dcmitype/StillImage" />
        <dc:title></dc:title>
      </cc:Work>
    </rdf:RDF>
  </metadata>
  <g
     inkscape:label="Layer 1"
     inkscape:groupmode="layer"
     id="layer1"
     transform="translate(82.785743,-109.60176)">
    <g
       id="g1572">
      <path
         id="path815"
         d="m 23.153674,186.48005 c 0.772584,-2.82575 3.288771,-12.31106 4.997979,-21.91808 2.037292,-11.46969 3.820584,-27.26796 -4.333875,-33.89577 -8.154458,-6.62781 -18.8594994,1.27529 -24.46602016,-1.27265 -5.60652074,-2.54793 -5.86052074,-15.29291 -20.90208284,-19.1135 -15.041563,-3.82058 -23.447375,9.42711 -30.072542,16.56292 -6.625166,7.13581 -14.022916,2.29394 -23.701374,9.9404 -9.577917,7.56179 -1.455209,41.80416 5.627687,49.69668 z"
         inkscape:connector-curvature="0"
         style="fill:#6266ea;stroke-width:0.26458332" />
      <path
         id="path817"
         d="m 23.153674,186.48005 c 0.772584,-2.82575 3.288771,-12.31106 4.997979,-21.91808 2.037292,-11.46969 3.820584,-27.26796 -4.333875,-33.89577 -8.154458,-6.62781 -18.8594994,1.27529 -24.46602016,-1.27265 -5.60652074,-2.54793 -5.86052074,-15.29291 -20.90208284,-19.1135 -15.041563,-3.82058 -23.447375,9.42711 -30.072542,16.56292 -6.625166,7.13581 -14.022916,2.29394 -23.701374,9.9404 -9.577917,7.56179 -1.455209,41.80416 5.627687,49.69668 z"
         inkscape:connector-curvature="0"
         style="opacity:0.7;fill:#ffffff;stroke-width:0.26458332" />
      <path
         id="path819"
         d="M 25.79157,132.80668 H 5.0217786 a 0.38364583,0.38364583 0 0 0 -0.381,0.381 v 53.44583 a 0.38364583,0.38364583 0 0 0 0.381,0.38365 H 25.79157 a 0.38364583,0.38364583 0 0 0 0.383646,-0.38365 v -53.44583 a 0.38364583,0.38364583 0 0 0 -0.383646,-0.381 z m -0.381,53.44583 H 5.4054244 V 133.57132 H 25.41057 Z"
         inkscape:connector-curvature="0"
         style="fill:#ffffff;stroke-width:0.26458332" />
      <path
         id="path821"
         d="M 6.8553411,144.56741 H 23.960653 a 0.381,0.381 0 0 0 0.381,-0.38365 v -9.03023 a 0.37835416,0.37835416 0 0 0 -0.381,-0.381 H 6.8553411 a 0.381,0.381 0 0 0 -0.3836458,0.381 v 9.03023 a 0.38364583,0.38364583 0 0 0 0.3836458,0.38365 z m 0.381,-9.03817 H 23.577008 v 8.26558 H 7.2363411 Z m -0.381,21.86517 H 23.960653 a 0.37835416,0.37835416 0 0 0 0.381,-0.381 v -9.03023 a 0.381,0.381 0 0 0 -0.381,-0.38365 H 6.8553411 a 0.38364583,0.38364583 0 0 0 -0.3836458,0.38365 v 9.03023 a 0.381,0.381 0 0 0 0.3836458,0.381 z m 0.381,-9.03023 H 23.577008 v 8.26823 H 7.2363411 Z m -0.381,21.85987 H 23.960653 a 0.381,0.381 0 0 0 0.381,-0.381 v -9.03287 a 0.381,0.381 0 0 0 -0.381,-0.381 H 6.8553411 a 0.38364583,0.38364583 0 0 0 -0.3836458,0.381 v 9.03287 a 0.38364583,0.38364583 0 0 0 0.3836458,0.381 z m 0.381,-9.03023 H 23.577008 v 8.26559 H 7.2363411 Z m -0.381,21.85988 H 23.960653 a 0.381,0.381 0 0 0 0.381,-0.38365 v -9.04081 a 0.37835416,0.37835416 0 0 0 -0.381,-0.381 H 6.8553411 a 0.381,0.381 0 0 0 -0.3836458,0.381 v 9.03023 a 0.38364583,0.38364583 0 0 0 0.3836458,0.39423 z m 0.381,-9.03023 H 23.577008 v 8.26558 H 7.2363411 Z M -0.22490883,113.83341 H -56.168408 a 0.381,0.381 0 0 0 -0.381,0.37041 v 27.86592 a 0.381,0.381 0 0 0 0.383646,0.381 h 55.94085317 a 0.37835416,0.37835416 0 0 0 0.381,-0.381 v -27.86592 a 0.37835416,0.37835416 0 0 0 -0.381,-0.37041 z m -0.38364583,0.76464 v 25.85509 H -55.787408 v -25.86567 z"
         inkscape:connector-curvature="0"
         style="fill:#ffffff;stroke-width:0.26458332" />
      <path
         style="fill:#263238;stroke:#263238;stroke-width:0.26458332;stroke-linecap:round;stroke-linejoin:round"
         inkscape:connector-curvature="0"
         d="m 12.356029,168.94082 -1.203855,18.18217 a 0.36777083,0.36777083 0 0 1 -0.365125,0.34131 v 0 a 0.36247916,0.36247916 0 0 1 -0.362479,-0.37571 l 0.494771,-18.14777 z m 3.079749,0 1.203855,18.18217 a 0.365125,0.365125 0 0 0 0.362479,0.34131 v 0 a 0.365125,0.365125 0 0 0 0.365125,-0.37571 l -0.500063,-18.13718 z m -12.070291,0 1.2038541,18.18217 a 0.365125,0.365125 0 0 0 0.3624792,0.34131 v 0 a 0.365125,0.365125 0 0 0 0.365125,-0.37571 L 4.7942369,168.95141 Z m -4.9186041,0 -1.2038542,18.18217 a 0.36777083,0.36777083 0 0 1 -0.365125,0.34131 v 0 a 0.36777083,0.36777083 0 0 1 -0.365125,-0.37571 l 0.5027083,-18.13718 z"
         id="path823" />
      <path
         style="fill:#ffffff;stroke:#263238;stroke-width:0.26458332;stroke-linecap:round;stroke-linejoin:round"
         inkscape:connector-curvature="0"
         d="m 19.420403,150.61049 c 0,0 -12.0120828,-0.44979 -13.0280827,-0.44979 -1.016,0 -1.2514792,0.44979 -1.2514792,0.44979 l -1.7145,12.08881 c 0,0 -5.3313541,-1.52135 -6.3764582,-1.32291 -1.0451042,0.19843 0.5159375,7.78404 0.5159375,7.78404 h 6.0324999 l 0.1084792,-0.45509 H 17.327549 l 3.616854,-17.22966 c -0.219604,-0.78846 -1.524,-0.86519 -1.524,-0.86519 z"
         id="path825" />
      <path
         style="fill:#ffffff;stroke:#263238;stroke-width:0.26458332;stroke-linecap:round;stroke-linejoin:round"
         inkscape:connector-curvature="0"
         d="m 14.848403,158.17228 c 0,0 1.222375,7.9375 -0.179916,8.86354 -0.216959,0.14288 -1.394354,0.82021 -2.495021,0.70909 -0.883708,-0.09 -7.1278749,0 -7.1278749,0 0,0 -0.8678333,-1.651 -1.0424583,-2.86809 -0.174625,-1.21708 1.190625,-6.43995 1.190625,-6.43995 z"
         id="path827" />
      <path
         style="fill:#ffb400;fill-opacity:1;stroke:#263238;stroke-width:0.26458332;stroke-linecap:round;stroke-linejoin:round"
         inkscape:connector-curvature="0"
         d="m 4.6222578,162.42414 c 0,0 -9.0381666,0.93927 -9.4641457,1.19327 -0.4259792,0.254 -2.38125,1.96056 -2.0452292,3.06916 0.3360209,1.10861 -0.5106458,1.19327 0.2645834,1.36525 0.7752291,0.17198 11.7633748,0.16934 11.7633748,0.16934"
         id="path829" />
      <path
         style="fill:#ffffff;stroke:#263238;stroke-width:0.26458332;stroke-linecap:round;stroke-linejoin:round"
         inkscape:connector-curvature="0"
         d="M 17.877883,169.1472 H -3.5983463 v -1.60338 H 17.877883 Z"
         id="path831" />
      <path
         style="fill:#ffb400;fill-opacity:1;stroke:#263238;stroke-width:0.26458332;stroke-linecap:round;stroke-linejoin:round"
         inkscape:connector-curvature="0"
         d="M 12.80582,162.76545 H -0.13230466 c 0,0 -0.67997916,0.76729 -0.76729166,2.38125 -0.0873125,1.61396 0.0873125,1.96056 1.28058332,2.38125 1.1932708,0.42069 11.792479,0.20637 11.792479,0.20637"
         id="path833" />
      <path
         style="fill:#ffffff;stroke:#263238;stroke-width:0.26458332;stroke-linecap:round;stroke-linejoin:round"
         inkscape:connector-curvature="0"
         d="m 2.6114245,183.29711 -1.3546667,-3.20939 -2.21985412,0.42069 1.69862498,2.86279 -0.97895832,1.96056 -2.11666664,1.38377 c 0,0 -0.2460625,0.24342 0.8122708,0.1614 1.05833334,-0.082 3.254375,0 3.254375,0 l 1.3837708,-1.62719 c 0,0 0.5027083,-0.82815 -0.4788958,-1.95263 z"
         id="path835" />
      <path
         style="fill:#263238;stroke:#263238;stroke-width:0.26458332;stroke-linecap:round;stroke-linejoin:round"
         inkscape:connector-curvature="0"
         d="m 3.2040911,184.69941 0.055563,2.09814 H 2.9289245 L 2.4870703,185.7498 Z"
         id="path837" />
      <path
         style="fill:#263238;stroke:#263238;stroke-width:0.26458332;stroke-linecap:round;stroke-linejoin:round"
         inkscape:connector-curvature="0"
         d="m 1.7091953,186.88751 1.3837708,-1.62719 c 0,0 0.3571875,-0.60589 -0.1349375,-1.47902 -0.98425,1.68275 -2.29393744,2.18811 -2.29393744,2.18811 l -1.36524998,-0.32809 -1.65629168,1.08479 c 0,0 -0.2460625,0.24342 0.8122709,0.1614 1.05833327,-0.082 3.2543749,0 3.2543749,0 z"
         id="path839" />
      <path
         style="fill:#ffb400;fill-opacity:1;stroke:#263238;stroke-width:0.26458332;stroke-linecap:round;stroke-linejoin:round"
         inkscape:connector-curvature="0"
         d="m -2.7093463,166.94322 4.5376041,13.71864 -3.2199791,0.5715 -6.3499999,-14.2875 c 0,0 -0.5106459,-2.13254 0.8519583,-2.81252 1.3626041,-0.67997 5.3710416,-1.02393 5.3710416,-1.02393"
         id="path841" />
      <path
         style="fill:#263238;stroke:#263238;stroke-width:0.26458332;stroke-linecap:round;stroke-linejoin:round"
         inkscape:connector-curvature="0"
         d="m 11.845383,169.14455 c 0,0 -1.563688,-7.59618 -0.515938,-7.78404 1.04775,-0.18785 6.376458,1.32292 6.376458,1.32292 l 1.7145,-12.07294 c 0,0 1.80975,-0.28575 2.00025,1.32292 0.1905,1.60866 -3.54277,17.21114 -3.54277,17.21114 z"
         id="path843" />
      <path
         style="fill:#ffffff;stroke:#263238;stroke-width:0.26458332;stroke-linecap:round;stroke-linejoin:round"
         inkscape:connector-curvature="0"
         d="m -6.5669712,146.77932 -0.8069792,-1.32291 a 0.85460416,0.85460416 0 0 0 -0.7434792,-0.40746 l -0.7593541,0.0132 -1.2991043,-0.38894 a 0.43391666,0.43391666 0 0 0 -0.460375,0.14552 l -0.04763,0.0609 1.1959168,0.52916 -1.1932708,0.43921 -1.267354,-0.64294 a 0.238125,0.238125 0 0 0 -0.298979,0.0688 v 0 a 0.238125,0.238125 0 0 0 0.04233,0.33338 l 1.772708,1.3679 a 0.49477083,0.49477083 0 0 0 0.396875,0.0952 l 1.9605628,-0.39423 0.5476875,0.59795 z"
         id="path845" />
      <path
         style="fill:#ffffff;stroke:#263238;stroke-width:0.26458332;stroke-linecap:round;stroke-linejoin:round"
         inkscape:connector-curvature="0"
         d="m 7.1014036,144.0647 -7.2681041,7.60148 -6.9373749,-5.60652 -0.9577917,0.69585 7.63322911,8.64923 6.61722909,-3.56394 z m 10.8743744,1.94204 3.81,11.70781 -3.286125,0.0952 -3.267604,-5.49539 c 0,0 1.836209,-5.54302 2.743729,-6.30767 z"
         id="path847" />
      <path
         style="fill:#ffffff;stroke:#263238;stroke-width:0.26458332;stroke-linecap:round;stroke-linejoin:round"
         inkscape:connector-curvature="0"
         d="m 13.829758,143.99591 4.14602,2.02406 -3.471333,9.70756 0.410104,2.70669 -9.7207912,0.0159 1.158875,-4.36033 -0.79375,-2.794 a 2.1404791,2.1404791 0 0 1 -0.015875,-1.11125 l 1.5557499,-6.10658 4.0851663,-0.65617 z"
         id="path849" />
      <path
         style="fill:#ffffff;stroke:#263238;stroke-width:0.26458332;stroke-linecap:round;stroke-linejoin:round"
         inkscape:connector-curvature="0"
         d="m 13.63132,143.42705 c 0,0 0.814917,0.55034 0.841375,1.03982 0.01323,0.28839 0,0.79375 -0.02646,1.18004 a 2.5056041,2.5056041 0 0 1 -0.203729,0.87577 l -1.468438,1.77271 -1.698625,-1.34144 -1.410229,0.71967 c 0,0 -0.2645833,-2.16165 0.351896,-3.66978 0.616479,-1.50812 3.299354,-0.95514 3.614208,-0.57679 z"
         id="path851" />
      <path
         style="fill:#ffffff;stroke:#263238;stroke-width:0.26458332;stroke-linecap:round;stroke-linejoin:round"
         inkscape:connector-curvature="0"
         d="m 14.798133,139.23341 c 0,0 -0.333375,1.19856 -0.48948,1.99231 -0.156104,0.79375 -0.470958,2.38125 -0.441854,2.97656 0.0291,0.59531 -2.4765,3.13002 -2.791354,2.75167 -0.314854,-0.37836 -0.645583,-2.57704 -0.645583,-2.57704 l 0.312208,-3.556 c 0,0 3.264958,-3.61686 4.056063,-1.5875 z"
         id="path853" />
      <path
         style="fill:#ffffff;stroke:#263238;stroke-width:0.26458332;stroke-linecap:round;stroke-linejoin:round"
         inkscape:connector-curvature="0"
         d="m 9.5620285,137.38132 c 0,0 -0.4471458,0.73819 -0.4471458,1.05834 0,0.32014 0.1561042,0.94721 0.1296459,1.12977 -0.026458,0.18256 -0.4709584,0.79375 -0.5291667,1.00012 a 0.365125,0.365125 0 0 0 0.1825625,0.44715 3.4925,3.4925 0 0 1 0.3148542,0.18256 c 0,0 0.1322916,1.62983 0.3439583,2.05052 0.2116666,0.42069 0.3942291,0.6059 1.0239371,0.65881 0.629709,0.0529 2.129896,-0.60589 2.338917,-1.13241 0.209021,-0.52652 0.238125,-1.15623 0.264583,-1.91823 0.02646,-0.762 -0.500062,-1.85208 -0.894291,-2.8919 -0.394229,-1.03981 -2.045229,-1.61131 -2.7278545,-0.58473 z"
         id="path855" />
      <circle
         style="fill:#263238;stroke:#263238;stroke-width:0.26458332;stroke-linecap:round;stroke-linejoin:round"
         cx="16.348589"
         cy="140.74419"
         r="2.0187709"
         id="circle857" />
      <path
         style="fill:#263238;stroke:#263238;stroke-width:0.26458332;stroke-linecap:round;stroke-linejoin:round"
         inkscape:connector-curvature="0"
         d="m 9.5514452,137.26755 c 0,0 0.8122708,-0.70114 2.2727708,0.69321 1.4605,1.39436 0.904875,3.41048 1.881187,3.82852 0.976313,0.41804 2.783417,-1.67216 2.992438,-2.71462 0.209021,-1.04246 -0.418042,-3.20411 -2.368021,-3.62215 -1.949979,-0.41804 -4.3391665,-0.13229 -4.7783748,1.81504 z"
         id="path859" />
      <path
         style="fill:#263238;stroke:#263238;stroke-width:0.26458332;stroke-linecap:round;stroke-linejoin:round"
         inkscape:connector-curvature="0"
         d="m 9.5514452,137.26755 a 1.0847917,1.0847917 0 0 1 1.2303128,-1.18798 c 1.322916,0.0714 1.4605,2.159 2.156354,2.99509 0.695854,0.83608 1.045104,0.69585 1.045104,0.69585 0,0 -1.182687,0.34661 -1.949979,-0.0714 -0.767292,-0.41804 -1.137708,-2.77548 -2.4817918,-2.43152 z"
         id="path861" />
      <path
         style="fill:none;stroke:#ffffff;stroke-width:0.13229166;stroke-linecap:round;stroke-linejoin:round"
         inkscape:connector-curvature="0"
         d="m 11.713091,135.83616 a 4.1274999,4.1274999 0 0 1 1.5875,1.80181 c 0.600604,1.27265 0.600604,2.32304 2.026708,2.24896 0,0 -0.674687,0.15081 -1.725083,-0.37571 -1.050396,-0.52652 -1.275292,-2.02406 -1.949979,-2.62467 a 2.2198541,2.2198541 0 0 0 -1.349375,-0.6006 m 6.394979,2.78871 c 0,0 -0.06085,1.91029 -1.526646,2.31246"
         id="path863" />
      <path
         style="fill:#ffffff;stroke:#263238;stroke-width:0.26458332;stroke-linecap:round;stroke-linejoin:round"
         inkscape:connector-curvature="0"
         d="m 12.607383,141.02464 c 0,0 1.397,-1.82827 1.725083,-0.46302 0.328083,1.36525 -0.79375,1.69862 -1.322917,1.54252 -0.529166,-0.15611 -0.455083,-0.43921 -0.455083,-0.43921 m -3.0559375,15.00452 c 0,0 -2.6669999,0.37042 -3.1114999,0.37042 -0.4445,0 -1.55575,1.40758 -1.55575,1.40758 h 4.8894999 z"
         id="path865" />
      <path
         style="fill:#ffffff;stroke:#263238;stroke-width:0.26458332;stroke-linecap:round;stroke-linejoin:round"
         inkscape:connector-curvature="0"
         d="m 20.827987,154.87557 0.957791,2.159 a 0.85195832,0.85195832 0 0 1 -0.79375,1.12448 l -11.5622911,0.0661 0.074083,-1.55575 8.9640831,-1.41817"
         id="path867" />
      <path
         style="fill:#263238;stroke:#263238;stroke-width:0.26458332;stroke-linecap:round;stroke-linejoin:round"
         inkscape:connector-curvature="0"
         d="m 5.3525078,184.69941 0.055563,2.09814 H 5.0773411 L 4.6354869,185.7498 Z"
         id="path869" />
      <path
         style="fill:#ffffff;stroke:#263238;stroke-width:0.26458332;stroke-linecap:round;stroke-linejoin:round"
         inkscape:connector-curvature="0"
         d="m 4.7598411,183.29711 -0.4259792,-3.05329 -2.2172083,0.14288 0.7672917,3.00566 -0.9789583,1.96057 -2.11666666,1.38377 c 0,0 -0.24341667,0.24341 0.81491665,0.16139 1.05833331,-0.082 3.25437501,0 3.25437501,0 l 1.3837708,-1.62718 c 0,0 0.5000625,-0.84932 -0.4815417,-1.9738 z"
         id="path871" />
      <path
         style="fill:#263238;stroke:#263238;stroke-width:0.26458332;stroke-linecap:round;stroke-linejoin:round"
         inkscape:connector-curvature="0"
         d="m 3.857612,186.88751 1.3837708,-1.62719 c 0,0 0.3571875,-0.60589 -0.1375834,-1.47902 -0.98425,1.68275 -2.2939374,2.18811 -2.2939374,2.18811 l -1.3626042,-0.32809 -1.65893746,1.08479 c 0,0 -0.24341667,0.24342 0.81491665,0.1614 1.05833331,-0.082 3.25437501,0 3.25437501,0 z"
         id="path873" />
      <path
         style="fill:#ffb400;fill-opacity:1;stroke:#263238;stroke-width:0.26458332;stroke-linecap:round;stroke-linejoin:round"
         inkscape:connector-curvature="0"
         d="m 3.7438411,164.58049 0.9498542,16.22425 -3.0083125,0.0714 -2.936875,-14.73994 c 0,0 0.055562,-2.80723 0.95250004,-3.13002 0.89693749,-0.32279 3.27818746,0.0238 3.27818746,0.0238"
         id="path875" />
      <path
         style="fill:#ffffff;stroke:#263238;stroke-width:0.26458332;stroke-linecap:round;stroke-linejoin:round"
         inkscape:connector-curvature="0"
         d="m -9.4059504,129.65814 3.7332708,10.46427 c 0,0 -0.492125,2.36802 -1.9737916,2.27012 -1.4816667,-0.0979 -1.8758958,-2.17223 -2.270125,-2.46856 -0.3942288,-0.29633 -0.9868958,-2.56646 -0.9868958,-2.56646 z"
         id="path879" />
      <path
         style="fill:#ffffff;stroke:#263238;stroke-width:0.26458332;stroke-linecap:round;stroke-linejoin:round"
         inkscape:connector-curvature="0"
         d="m -19.063242,127.55999 -6.069542,2.19075 2.328334,16.83015 h 10.951104 l 2.4473956,-16.92275 -6.5510836,-2.05052 z"
         id="path881" />
      <path
         style="fill:#ffb400;fill-opacity:1;stroke:#263238;stroke-width:0.26458332;stroke-linecap:round;stroke-linejoin:round"
         inkscape:connector-curvature="0"
         d="m -18.478513,130.44395 0.875771,1.32027 -0.759354,11.19717 1.116542,2.9157 1.145645,-2.83633 -0.981604,-11.10985 0.788459,-1.90765 -1.09273,-1.43669 z"
         id="path883" />
      <path
         style="fill:#ffffff;stroke:#263238;stroke-width:0.26458332;stroke-linecap:round;stroke-linejoin:round"
         inkscape:connector-curvature="0"
         d="m -17.266721,129.89891 -1.563688,1.1721 -1.029229,-3.05594 0.717021,-1.54781 3.198813,-0.0767 0.78052,0.70115 -0.156104,3.89996 z"
         id="path885" />
      <path
         style="fill:#ffffff;stroke:#263238;stroke-width:0.26458332;stroke-linecap:round;stroke-linejoin:round"
         inkscape:connector-curvature="0"
         d="m -15.613075,125.67351 -0.243417,1.96586 -1.751542,2.25954 -1.309687,-2.29129 v -3.68565 c 0,0 2.293937,0.57415 3.304646,1.75154 z"
         id="path887" />
      <path
         style="fill:#ffffff;stroke:#263238;stroke-width:0.26458332;stroke-linecap:round;stroke-linejoin:round"
         inkscape:connector-curvature="0"
         d="m -19.817304,121.58834 c 0,-1.78593 1.30175,-3.2332 2.910416,-3.2332 1.608667,0 2.500313,1.52664 2.500313,3.31258 0,0.57679 -0.119063,1.56633 -0.166688,2.09285 -0.08202,0.89959 -0.354541,1.28059 -0.886354,2.08757 -1.743604,2.64583 -3.175,-1.23561 -3.907896,-2.54 a 3.4713333,3.4713333 0 0 1 -0.449791,-1.7198 z"
         id="path889" />
      <path
         style="fill:#ffffff;stroke:#263238;stroke-width:0.26458332;stroke-linecap:round;stroke-linejoin:round"
         inkscape:connector-curvature="0"
         d="m -15.642179,122.14926 0.246062,1.84415 -0.865187,-0.0238"
         id="path891" />
      <path
         style="fill:#ffffff;stroke:#263238;stroke-width:0.26458332;stroke-linecap:round;stroke-linejoin:round"
         inkscape:connector-curvature="0"
         d="m -13.710721,121.82912 -4.15925,0.0185 a 0.97102082,0.97102082 0 0 0 0.206375,0.94456 c 0.264583,0.26458 1.341437,0.17198 1.513417,0.10319 0.171979,-0.0688 0.264583,-0.8255 0.264583,-0.8255 h 0.309562 c 0,0 0.0344,0.79375 0.478896,0.85989 0.4445,0.0662 1.023938,0.045 1.135063,-0.0344 0.492125,-0.33073 0.251354,-1.06627 0.251354,-1.06627 z"
         id="path893" />
      <path
         style="fill:#263238;stroke:#263238;stroke-width:0.26458332;stroke-linecap:round;stroke-linejoin:round"
         inkscape:connector-curvature="0"
         d="m -19.304013,123.60712 c 0,0 0.936625,1.91822 1.158875,2.58233 0.22225,0.6641 1.322917,1.18269 2.436813,0.81227 1.113896,-0.37042 0.812271,-2.01877 0.812271,-2.01877 0,0 -1.182688,-1.01071 -1.402292,-0.79375 -0.219604,0.21696 -1.404938,1.18269 -1.479021,0.96044 -0.07408,-0.22225 -0.590021,-1.55046 -0.590021,-1.55046 l -0.240771,-0.94192 0.494771,-0.3175 a 0.37041666,0.37041666 0 0 0 0.06615,-0.49742 l -0.232833,-0.33602 a 0.37570833,0.37570833 0 0 1 -0.06085,-0.28575 c 0.06085,-0.28839 0.227541,-0.88635 0.613833,-1.05833 0.529167,-0.2196 1.172104,0.10054 1.764771,0.24871 0.592666,0.14817 1.235604,-0.38629 1.235604,-0.38629 l 0.264583,0.87841 a 4.2148124,4.2148124 0 0 0 1.201209,-2.03729 c 0.296333,-1.25677 -2.733146,-1.77271 -3.704167,-1.77271 -0.971021,0 -2.510896,0.52917 -2.955396,1.92088 -0.4445,1.39171 0.354542,4.34446 0.616479,4.59317 z"
         id="path895" />
      <path
         style="fill:none;stroke:#ffffff;stroke-width:0.13229166;stroke-linecap:round;stroke-linejoin:round"
         inkscape:connector-curvature="0"
         d="m -16.906888,118.87372 c 0,0 0.550334,0.8255 -0.171979,0.99748 -0.722312,0.17198 -2.129896,-0.44715 -2.749021,-0.20638 m 1.68275,1.02923 c 0,0 -1.132416,-0.13758 -1.5875,0.34396 m 4.312709,3.82852 c 0,0 -0.833438,0.43392 -1.246188,-0.082"
         id="path897" />
      <path
         style="fill:#ffffff;stroke:#263238;stroke-width:0.26458332;stroke-linecap:round;stroke-linejoin:round"
         inkscape:connector-curvature="0"
         d="m -19.163784,123.02239 c 0,0 -0.817562,-0.89959 -0.817562,0.082 0,0.9816 0.246062,0.9816 0.735542,1.32291 0.489479,0.34132 0.656166,-0.082 0.656166,-0.082"
         id="path899" />
      <path
         style="fill:#263238;stroke:#263238;stroke-width:0.26458332;stroke-linecap:round;stroke-linejoin:round"
         inkscape:connector-curvature="0"
         d="m -8.2470754,184.01149 h 0.037042 l -0.071438,-0.35983 -3.5718746,-37.06813 H -22.80445 l -3.600979,37.42531 h 0.03969 l 2.323042,0.19844 c 0,0 2.577041,-8.65187 2.577041,-9.29746 0,-0.64558 0.735542,-6.61458 0.735542,-6.61458 l 3.653896,-12.84552 3.230562,12.84552 c 0,0 0.735542,5.98223 0.735542,6.61458 0,0.63236 2.579687,9.30275 2.579687,9.30275 l 2.1854588,-0.18785 h 0.097896 z"
         id="path901" />
      <path
         style="fill:none;stroke:#ffffff;stroke-width:0.13229166;stroke-linecap:round;stroke-linejoin:round"
         inkscape:connector-curvature="0"
         d="m -12.670909,148.7637 -2.436812,3.47927 m 1.132417,-2.6961 -1.479021,2.43681 m -5.479521,-2.60879 2.172229,2.34685 m -2.346854,-1.47902 3.130021,3.13267 m -4.175125,-6.43732 h 9.657291"
         id="path903" />
      <path
         style="fill:#263238;stroke:#263238;stroke-width:0.26458332;stroke-linecap:round;stroke-linejoin:round"
         inkscape:connector-curvature="0"
         d="m -26.365742,184.00884 c 0,0 -1.394354,1.09802 -2.198687,1.39965 -0.804334,0.30162 -2.307167,1.10331 -2.307167,1.10331 0,0 0,0.50271 1.304396,0.50271 h 5.119687 l -0.08731,-3.00567 z"
         id="path905" />
      <path
         style="fill:#ffffff;stroke:#263238;stroke-width:0.26458332;stroke-linecap:round;stroke-linejoin:round"
         inkscape:connector-curvature="0"
         d="m -24.466034,186.46682 a 49.80252,49.80252 0 0 1 -6.133041,-0.0979 l -0.264583,0.14287 c 0,0 0,0.50271 1.304395,0.50271 h 5.119688 z"
         id="path907" />
      <path
         style="fill:#263238;stroke:#263238;stroke-width:0.26458332;stroke-linecap:round;stroke-linejoin:round"
         inkscape:connector-curvature="0"
         d="m -8.4587421,184.00884 c 0,0 1.397,1.09802 2.1986875,1.39965 0.8016875,0.30162 2.3098125,1.10331 2.3098125,1.10331 0,0 0,0.50271 -1.3070417,0.50271 h -5.1170412 l 0.0926,-3.00567 z"
         id="path909" />
      <path
         style="fill:#ffffff;stroke:#263238;stroke-width:0.26458332;stroke-linecap:round;stroke-linejoin:round"
         inkscape:connector-curvature="0"
         d="m -10.35845,186.46682 a 49.80252,49.80252 0 0 0 6.1330412,-0.0979 l 0.2645834,0.14287 c 0,0 0,0.50271 -1.3070417,0.50271 h -5.1064579 z m -14.774334,-56.71608 -4.032249,10.7659 h 3.868208 l 1.444625,-2.93688 z"
         id="path911" />
      <path
         style="fill:#ffffff;stroke:#263238;stroke-width:0.26458332;stroke-linecap:round;stroke-linejoin:round"
         inkscape:connector-curvature="0"
         d="m -7.4930129,138.84976 c -1.6139583,-0.66675 -6.7918541,-0.99748 -7.0617291,-0.99748 -0.269875,0 -8.686271,-0.69321 -9.376833,-0.79375 -0.690563,-0.10054 -1.481667,1.48167 -1.481667,1.48167 l 3.65125,-0.10054 4.442354,0.889 c 0,0 8.9958334,3.25702 9.6731668,3.06123 a 0.60324999,0.60324999 0 0 0 0.2434166,-0.15346"
         id="path913" />
      <path
         style="fill:#ffffff;stroke:#263238;stroke-width:0.26458332;stroke-linecap:round;stroke-linejoin:round"
         inkscape:connector-curvature="0"
         d="m -26.302242,138.34441 13.917083,-1.38113 0.100542,1.18269 -12.043833,3.6539 c 0,0 -2.169583,0.49212 -3.849688,0.19579 -1.680104,-0.29634 -0.886354,-1.97379 -0.492125,-2.96069"
         id="path915" />
      <path
         style="fill:#ffffff;stroke:#263238;stroke-width:0.26458332;stroke-linecap:round;stroke-linejoin:round"
         inkscape:connector-curvature="0"
         d="m -12.382513,136.96328 2.6643543,-0.10054 0.7884583,1.57956 -3.3549166,-0.29368 z"
         id="path917" />
      <path
         style="fill:#263238;stroke:#263238;stroke-width:0.26458332;stroke-linecap:round;stroke-linejoin:round"
         inkscape:connector-curvature="0"
         d="m 5.3630911,160.17782 2.2727708,27.05894 a 0.29897916,0.29897916 0 0 0 0.3571875,0.24871 0.29104166,0.29104166 0 0 0 0.2196042,-0.31221 l -1.5478125,-26.9875 z m 15.2743959,0 2.280708,27.1489 a 0.29633333,0.29633333 0 0 0 0.357188,0.24871 0.29104166,0.29104166 0 0 0 0.219604,-0.31221 l -1.553104,-27.0854 z m -63.034333,0 -1.187979,26.82346 a 0.29633333,0.29633333 0 0 0 0.22225,0.31486 v 0 a 0.28310416,0.28310416 0 0 0 0.351896,-0.24342 l 1.923521,-26.8949 z m -14.078479,0 -1.195916,26.72292 a 0.29897916,0.29897916 0 0 0 0.224895,0.31485 0.28575,0.28575 0 0 0 0.351896,-0.24341 l 1.915584,-26.80494 z"
         id="path921" />
      <path
         style="fill:#ffb400;fill-opacity:1;stroke:#263238;stroke-width:0.26458332;stroke-linecap:round;stroke-linejoin:round"
         inkscape:connector-curvature="0"
         d="m -57.321991,158.67764 h 80.933394 v 2.32304 h -80.933394 z"
         id="path923" />
      <path
         style="fill:#263238;stroke:#263238;stroke-width:0.26458332;stroke-linecap:round;stroke-linejoin:round"
         inkscape:connector-curvature="0"
         d="m -57.321991,158.67764 h 80.933394 v 0.79639 h -80.933394 z"
         id="path925" />
      <path
         style="fill:#263238;stroke:#263238;stroke-width:0.26458332;stroke-linecap:round;stroke-linejoin:round"
         inkscape:connector-curvature="0"
         d="M 3.3575495,158.67764 H 23.608758 v 2.32304 H 3.3575495 Z"
         id="path927" />
      <path
         style="fill:#ffb400;fill-opacity:1;stroke:#263238;stroke-width:0.26458332;stroke-linecap:round;stroke-linejoin:round"
         inkscape:connector-curvature="0"
         d="M -58.044304,157.90505 H 24.33107 v 0.88636 h -82.375374 z"
         id="path929" />
      <path
         style="fill:#263238;stroke:#263238;stroke-width:0.26458332;stroke-linecap:round;stroke-linejoin:round"
         inkscape:connector-curvature="0"
         d="M 4.2015703,157.90505 H 24.328424 v 0.88636 H 4.2015703 Z"
         id="path931" />
      <path
         style="fill:#ffffff;stroke:#263238;stroke-width:0.26458332;stroke-linecap:round;stroke-linejoin:round"
         inkscape:connector-curvature="0"
         d="m -39.69545,157.82568 h 11.054292 a 0.2143125,0.2143125 0 0 0 0.198437,-0.12965 l 3.061229,-6.97971 a 0.2143125,0.2143125 0 0 0 -0.198437,-0.29898 h -11.054292 a 0.2143125,0.2143125 0 0 0 -0.195792,0.127 l -3.050645,6.97971 a 0.2143125,0.2143125 0 0 0 0.185208,0.30163 z"
         id="path933" />
      <path
         style="fill:#ffb400;fill-opacity:1;stroke:#263238;stroke-width:0.26458332;stroke-linecap:round;stroke-linejoin:round"
         inkscape:connector-curvature="0"
         d="m -38.658283,157.28064 h 9.432395 a 0.1825625,0.1825625 0 0 0 0.166688,-0.10848 l 2.611437,-5.95577 a 0.1825625,0.1825625 0 0 0 -0.166687,-0.26459 h -9.432396 a 0.1825625,0.1825625 0 0 0 -0.169333,0.11113 l -2.606146,5.96106 a 0.1825625,0.1825625 0 0 0 0.164042,0.25665 z"
         id="path935" />
      <path
         style="fill:#ffffff;stroke:#263238;stroke-width:0.26458332;stroke-linecap:round;stroke-linejoin:round"
         inkscape:connector-curvature="0"
         d="M -45.095596,157.36266 H -28.4877 v 0.54239 h -16.607896 z"
         id="path937" />
      <path
         style="fill:#ffffff;stroke:#263238;stroke-width:0.26458332;stroke-linecap:round;stroke-linejoin:round"
         inkscape:connector-curvature="0"
         d="m -36.536325,157.36266 h 8.051271 v 0.54239 h -8.051271 z m 10.456333,-3.77561 h 2.928938 v 4.32859 h -2.928938 z"
         id="path939" />
      <path
         style="fill:#ffffff;stroke:#263238;stroke-width:0.26458332;stroke-linecap:round;stroke-linejoin:round"
         inkscape:connector-curvature="0"
         d="m -23.2807,157.32562 h -0.306917 a 0.240775,0.240775 0 0 1 0,-0.48155 h 0.306917 a 0.46037499,0.46037499 0 0 0 0.457729,-0.45773 v -1.05833 a 0.46037499,0.46037499 0 0 0 -0.457729,-0.45773 h -0.394229 a 0.24077083,0.24077083 0 1 1 0,-0.48154 h 0.394229 a 0.93927082,0.93927082 0 0 1 0.939271,0.93927 v 1.05833 a 0.93927082,0.93927082 0 0 1 -0.939271,0.93928 z m 23.01345784,0.50006 H -11.321534 a 0.2143125,0.2143125 0 0 1 -0.195791,-0.12965 l -3.061229,-6.97971 a 0.2143125,0.2143125 0 0 1 0.195791,-0.29898 h 11.0542917 a 0.21695833,0.21695833 0 0 1 0.1984375,0.127 l 3.06122914,6.97971 a 0.21695833,0.21695833 0 0 1 -0.1984375,0.30163 z"
         id="path941" />
      <path
         style="fill:#ffffff;stroke:#263238;stroke-width:0.26458332;stroke-linecap:round;stroke-linejoin:round"
         inkscape:connector-curvature="0"
         d="M 5.1329036,157.90505 H -11.474992 v -0.54239 H 5.1329036 Z"
         id="path943" />
      <path
         style="fill:#ffffff;stroke:#263238;stroke-width:0.26458332;stroke-linecap:round;stroke-linejoin:round"
         inkscape:connector-curvature="0"
         d="M -0.0238255,157.90505 H -11.474992 v -0.54239 h 11.4511665 z m -7.1172916,-4.59052 a 0.65087499,0.65087499 0 1 1 -0.8916458,-0.26458 0.65881249,0.65881249 0 0 1 0.8916458,0.26458 z"
         id="path945" />
      <g
         transform="matrix(0.26458333,0,0,0.26458333,-92.532741,85.522991)"
         id="g983"
         style="stroke-linecap:round;stroke-linejoin:round">
        <path
           id="path949"
           d="m 127.37,178.57 3.08,30.43 14,40.53 -4.79,2.74 -16.44,-37.1 -8.21,-31.85 c 0,0 -0.69,-9.58 2.74,-11 3.43,-1.42 8.25,0.09 9.62,6.25 z m 17.12,71 c 0,0 3.08,6.51 3.43,8.22 0.35,1.71 0.7,5.2 -0.65,6.76 -1.63,1.88 -3.12,0.43 -3.12,0.43 0,0 -4.11,-1 -4.11,-4.45 0,-3.45 -0.34,-8.22 -0.34,-8.22 z"
           inkscape:connector-curvature="0"
           style="fill:#ffffff;stroke:#263238" />
        <path
           id="path951"
           d="m 141.13,259.78 5.77,1.5"
           inkscape:connector-curvature="0"
           style="fill:none;stroke:#263238" />
        <path
           id="path953"
           d="m 142.51,255.89 1.64,2.58 c 0,0 -3.82,6.53 -1.77,4.82 2.05,-1.71 5.88,-3.79 5.54,-5.5 a 27.2,27.2 0 0 0 -2.28,-5.16"
           inkscape:connector-curvature="0"
           style="fill:#ffffff;stroke:#263238" />
        <path
           id="path955"
           d="m 111,142 c 0,0 -3.52,-3.8 -11.64,-1.36 -8.12,2.44 -10,15.44 -9.75,21.93 0.25,6.49 6.5,13.81 4.61,17.06 -1.89,3.25 -8.94,10.83 -8.4,19 0.54,8.17 7.31,14.62 17.06,11.64 9.75,-2.98 8.12,-14.91 6.18,-19.27 -1.94,-4.36 2.17,-6.23 3.52,-15.71 1.35,-9.48 -7.31,-17.33 -7.31,-24.1 0,-6.77 7,-5.68 7,-5.68 z"
           inkscape:connector-curvature="0"
           style="fill:#263238;stroke:#263238" />
        <path
           id="path957"
           d="m 98.8,167.7 c 1.28,2.64 2.77,5.46 4.25,8.5 4.94,10.08 1.08,13.72 -6.43,19.3 -7.51,5.58 -5.79,12.44 -3.86,13.5 m 15.66,-64.33 c 0,0 -10.08,0.86 -12.66,7.29 -1.56,3.91 -0.36,8.29 1.94,13.39 m 3.35,41.14 a 6.06,6.06 0 0 0 2.43,0.38"
           inkscape:connector-curvature="0"
           style="fill:none;stroke:#ffffff;stroke-width:0.5" />
        <path
           id="path959"
           d="m 111,144 c 0,0 -9.44,1.71 -11.58,8.57 -2.14,6.86 10.51,17 11.15,24.46 0.64,7.46 -8.37,11.82 -11.57,17.61 -2.25,4.06 -2,8.53 0.37,10.78"
           inkscape:connector-curvature="0"
           style="fill:none;stroke:#ffffff;stroke-width:0.5" />
        <path
           id="path961"
           d="m 135.22,282.07 c 0,0 -2.33,20.12 -4.67,26.54 -2.34,6.42 -7.58,56.87 -7.87,59.79 -0.29,2.92 7.58,9.62 10.79,11.67 3.21,2.05 1.75,2.62 -1.75,2.91 -3.5,0.29 -7.58,-0.29 -9.33,-3.5 -1.75,-3.21 -5.84,-4.08 -5.84,-4.08 l -0.58,7 h -1.17 l -0.87,-8.75 a 10.08,10.08 0 0 1 0.87,-5.83 c 1.46,-3.21 2,-9.92 2,-19 0,-9.08 -1.75,-23.63 -0.88,-30.63 0.87,-7 4.38,-12.25 4.38,-18.08 0,-5.83 0.29,-14.58 0.29,-14.58 z"
           inkscape:connector-curvature="0"
           style="fill:#ffffff;stroke:#263238" />
        <path
           id="path963"
           d="m 113.93,373.65 a 9.66,9.66 0 0 1 0.37,-4.49 c 1.81,3.06 7,7.21 11,8.86 a 14.59,14.59 0 0 0 6.89,1.16 c 0.47,0.35 0.91,0.65 1.28,0.89 3.21,2 1.75,2.62 -1.75,2.91 -3.5,0.29 -7.58,-0.29 -9.33,-3.5 -1.75,-3.21 -5.84,-4.08 -5.84,-4.08 l -0.58,7 h -1.17 z"
           inkscape:connector-curvature="0"
           style="fill:#263238;stroke:#263238" />
        <path
           id="path965"
           d="m 118.3,285.28 c 0,0 -5,14.87 -9.62,27.7 -4.62,12.83 -15.75,42.29 -16.92,47.54 -1.17,5.25 -1.75,14.88 -5,19.84 -3.25,4.96 -6.42,7.29 -5.84,-1.46 0.58,-8.75 5.84,-15.17 7,-21.88 1.16,-6.71 1.75,-30.91 5.83,-41.7 4.08,-10.79 8.46,-19.54 9,-22.75 a 75.37,75.37 0 0 0 0.58,-9.63 z"
           inkscape:connector-curvature="0"
           style="fill:#ffffff;stroke:#263238" />
        <path
           id="path967"
           d="m 81.52,375.15 a 8.66,8.66 0 0 0 1.48,4.62 c 1.68,1.88 4.39,-1.77 5.8,-4 a 18.93,18.93 0 0 1 -2,4.58 c -3.21,4.95 -6.42,7.29 -5.84,-1.46 a 26.24,26.24 0 0 1 0.56,-3.74 z"
           inkscape:connector-curvature="0"
           style="fill:#263238;stroke:#263238" />
        <path
           id="path969"
           d="m 116,167.9 c 0,0 -1.75,1.46 -2.92,11.38 -1.17,9.92 6.13,40.83 6.13,40.83 0,0 -12.54,20.54 -15.46,30.75 -2.92,10.21 -4.67,48.46 -4.67,48.46 0,0 6.13,2.34 18.67,3.21 12.54,0.87 19.25,-2.33 19.25,-2.33 0,0 0.58,-54.59 0.58,-63 0,-8.41 0.59,-27.54 1.46,-29.87 0.87,-2.33 3.5,-8.46 3.5,-10.79 0,-2.33 -17.54,-27.18 -17.54,-27.18 z"
           inkscape:connector-curvature="0"
           style="fill:#ffffff;stroke:#263238" />
        <path
           id="path971"
           d="m 103.72,250.86 c 2.3,-8 11.82,-29.28 15.22,-32.94 5.17,1.72 14.6,3.42 18.81,2.16 -0.13,3 -0.2,14.2 -0.2,17.07 0,8.46 -0.58,63 -0.58,63 0,0 -6.71,3.21 -19.25,2.33 -12.54,-0.88 -18.67,-3.21 -18.67,-3.21 0,0 1.75,-38.2 4.67,-48.41 z m 18.75,-117.34 c 0,0 3.13,-6.82 9.32,-6.82 6.19,0 8.94,5.5 7.57,10.31 -1.37,4.81 4.12,3.44 4.81,6.54 0.69,3.1 -4.47,5.15 -7.22,5.15 -2.75,0 -14.48,-15.18 -14.48,-15.18 z"
           inkscape:connector-curvature="0"
           style="fill:#263238;stroke:#263238" />
        <path
           id="path973"
           d="m 131.51,132.82 c 1.84,-1 4,-1.72 5,-0.16 1.93,3 -4.07,5.36 -2.14,8.58 1.93,3.22 6.65,2.36 6.43,3.43 -0.22,1.07 -3.21,1.71 -3.21,1.71 M 128.36,135 c 0,0 0.59,-0.51 1.47,-1.13"
           inkscape:connector-curvature="0"
           style="fill:none;stroke:#ffffff;stroke-width:0.5" />
        <path
           id="path975"
           d="m 138.34,149.39 a 3.12,3.12 0 0 1 -1,-1.26 c -0.5,-3.69 -1.58,-7.32 -3.62,-9.36 a 19.83,19.83 0 0 0 -11.23,-5.25 7.91,7.91 0 0 0 -3.71,0.34 c -5.31,1.86 -9.87,5.53 -8.89,14.38 1.08,9.75 8.67,12.19 8.67,12.19 l 0.54,6 7.58,3.52 0.27,-6.5 c 0,0 5.14,2.16 7,1.89 1.86,-0.27 2.44,-2.71 3.25,-6.23 a 26.34,26.34 0 0 0 0.44,-4.87 l 2.27,-2.26 c 1.29,-1.31 0.02,-1.63 -1.57,-2.59 z"
           inkscape:connector-curvature="0"
           style="fill:#ffffff;stroke:#263238" />
        <path
           id="path977"
           d="m 109.87,148.24 c -1,-8.85 3.58,-12.52 8.89,-14.38 a 7.91,7.91 0 0 1 3.71,-0.34 21.49,21.49 0 0 1 8.12,2.82 c -1.52,-0.31 1.07,4.16 -1.31,7 a 22.13,22.13 0 0 1 -7.77,6.22 c 0,0 -2.7,-2.17 -3.52,0.81 -0.82,2.98 -0.54,5.14 1.63,5.69 2.17,0.55 3,0 3,0 0,0 -1.44,3.41 -4,4.82 v -0.49 c 0,0 -7.62,-2.39 -8.75,-12.15 z"
           inkscape:connector-curvature="0"
           style="fill:#263238;stroke:#263238" />
        <path
           id="path979"
           d="m 130.55,168.19 -1.45,7.88 -15.46,-8.17 1.46,-7.29 z m -7.47,66.44 a 32.4,32.4 0 0 0 4.86,0.66 c 1.27,-0.08 3,-1.51 4.28,-0.9 1.28,0.61 3.07,4.46 3.07,4.46 0,0 1.7,0.86 1.21,1.77 -0.49,0.91 -2.59,1.75 -2.59,1.75 0,0 -2,1.89 -3.16,2.08 -1.16,0.19 -8.23,-5 -8.23,-5 z"
           inkscape:connector-curvature="0"
           style="fill:#ffffff;stroke:#263238" />
        <path
           id="path981"
           d="m 123.83,238.37 a 2.45,2.45 0 0 0 -0.75,-3.74 l -19.43,-18.2 21.16,-32.9 a 7.61,7.61 0 0 0 -13.15,-7.65 l -18.34,36.45 a 5.06,5.06 0 0 0 -0.16,7.1 l 0.07,0.07 c 1.84,2.84 22.08,17.69 28,19.63 a 2.43,2.43 0 0 0 2.6,-0.76 z"
           inkscape:connector-curvature="0"
           style="fill:#ffffff;stroke:#263238" />
      </g>
      <path
         style="fill:#ffffff;stroke:#263238;stroke-width:0.26458332;stroke-linecap:round;stroke-linejoin:round"
         inkscape:connector-curvature="0"
         d="m -39.428221,135.26466 c 0,0 0.664104,2.05581 0.664104,2.45533 a 7.2601666,7.2601666 0 0 1 -0.06615,0.86254 l 0.58473,0.90752 a 0.26458333,0.26458333 0 0 1 -0.08202,0.35454 l -0.902229,0.52917 c 0,0 -0.132292,2.11667 -0.264584,2.38125 -0.132291,0.26458 -2.38125,0.20108 -2.38125,0.20108 l -0.73025,1.39171 -3.783541,-1.45785 0.994833,-2.72256 -0.206375,-4.10898 c 0,0 2.323042,-2.05317 6.172729,-0.79375 z"
         id="path985" />
      <path
         style="fill:#263238;stroke:#263238;stroke-width:0.26458332;stroke-linecap:round;stroke-linejoin:round"
         inkscape:connector-curvature="0"
         d="m -42.018492,140.26528 c 0,0 -0.658812,0.61913 -1.153583,0.66146 -0.494771,0.0423 -2.103437,-0.33073 -2.227792,-0.49477 -0.124354,-0.16404 -1.235604,-2.47385 -1.195916,-3.58775 0.03969,-1.1139 0.08467,-2.76225 1.277937,-3.29671 1.193271,-0.53446 3.092979,-0.37306 4.082521,-0.98954 0.989542,-0.61648 2.555875,-1.1139 3.381375,-0.0423 0.8255,1.07156 0.206375,2.55587 -0.452438,3.175 -0.658812,0.61912 -1.484312,0.79375 -1.402291,1.05833 0.08202,0.26458 0.576791,0.57679 0.288396,0.98954 -0.288396,0.41275 -1.322917,0.79375 -1.322917,0.94721 0,0.15346 0.248708,0.74348 -0.03969,0.8255 -0.288396,0.082 -0.579438,-0.57679 -0.867834,-0.57679 -0.288396,0 -0.902229,0.79639 -0.367771,1.33085 z"
         id="path987" />
      <path
         style="fill:none;stroke:#ffffff;stroke-width:0.13229166;stroke-linecap:round;stroke-linejoin:round"
         inkscape:connector-curvature="0"
         d="m -43.740929,138.37351 a 2.0928541,2.0928541 0 0 0 -0.301625,0.43921 m 5.720291,-4.71223 a 2.7305,2.7305 0 0 1 -1.508124,2.13783 c -1.058334,0.54769 -2.468563,0.99484 -3.405188,1.68275 m 3.526896,-1.15887 c 0,0 -0.939271,0.79375 -1.944688,1.61131 a 8.5672082,8.5672082 0 0 1 -2.262187,1.25677"
         id="path989" />
      <path
         style="fill:#ffffff;stroke:#263238;stroke-width:0.26458332;stroke-linecap:round;stroke-linejoin:round"
         inkscape:connector-curvature="0"
         d="m -42.084637,140.37641 0.529166,0.13229 a 1.8282708,1.8282708 0 0 0 0.399521,1.39435"
         id="path991" />
      <path
         style="fill:none;stroke:#263238;stroke-width:0.26458332;stroke-linecap:round;stroke-linejoin:round"
         inkscape:connector-curvature="0"
         d="m -41.470804,138.95559 3.735916,-0.92604 m -0.960437,-0.0741 0.851958,0.037 c 0,0 0.293688,0.96308 -0.592666,1.07421"
         id="path993" />
      <path
         style="fill:#263238;stroke:#263238;stroke-width:0.26458332;stroke-linecap:round;stroke-linejoin:round"
         inkscape:connector-curvature="0"
         d="m -42.462992,183.69928 c 0,0 3.439584,2.17223 4.045479,2.17223 0.605896,0 0.907521,0.54504 0.605896,0.6059 -0.301625,0.0609 -2.174875,0.11906 -3.439583,0.17991 -1.264708,0.0609 -2.116667,-0.0608 -2.838979,-0.0608 -0.722313,0 -1.571625,0.0608 -1.934104,-0.11906 -0.362479,-0.17992 0.243416,-2.23573 0.243416,-2.59821 0,-0.36248 2.894542,-0.42334 3.317875,-0.17992 z"
         id="path995" />
      <path
         style="fill:#ffffff;stroke:#263238;stroke-width:0.26458332;stroke-linecap:round;stroke-linejoin:round"
         inkscape:connector-curvature="0"
         d="m -38.028575,185.96147 c -1.336146,0.43921 -3.503083,0.15081 -4.804833,0.0318 -1.029229,-0.0926 -2.645834,-0.11377 -3.304646,-0.11906 -0.02646,0.30956 0,0.54504 0.103187,0.60325 0.36248,0.17991 1.209146,0.11906 1.934105,0.11906 0.724958,0 1.568979,0.12171 2.838979,0.0608 1.27,-0.0608 3.140604,-0.12171 3.439583,-0.17991 0.235479,-0.0476 0.124354,-0.35984 -0.206375,-0.51594 z"
         id="path997" />
      <path
         style="fill:#ffb400;fill-opacity:1;stroke:#263238;stroke-width:0.26458332;stroke-linecap:round;stroke-linejoin:round"
         inkscape:connector-curvature="0"
         d="m -39.745721,168.77678 -2.714625,13.61281 0.566209,1.41288 a 2.8442708,2.8442708 0 0 1 -1.717146,1.15887 13.009562,13.009562 0 0 1 -2.354792,0.24342 c 0,0 -0.301625,-1.51077 -0.119062,-1.69333 0.182562,-0.18257 0.24077,-0.90488 0.24077,-0.90488 l 1.56898,-13.71071 z"
         id="path999" />
      <path
         style="fill:#263238;stroke:#263238;stroke-width:0.26458332;stroke-linecap:round;stroke-linejoin:round"
         inkscape:connector-curvature="0"
         d="m -31.4722,183.23891 c 0,0 2.116667,1.75154 3.082396,2.05316 0.965729,0.30163 1.992312,0.60325 1.992312,0.90488 0,0.30162 -2.293937,0.60325 -4.045479,0.42333 -1.751542,-0.17992 -4.410604,-0.96573 -5.013854,-0.96573 -0.60325,0 -0.484188,-1.57162 -0.484188,-1.81239 0,-0.24077 2.960688,-2.17488 4.468813,-0.60325 z"
         id="path1001" />
      <path
         style="fill:#ffffff;stroke:#263238;stroke-width:0.26458332;stroke-linecap:round;stroke-linejoin:round"
         inkscape:connector-curvature="0"
         d="m -26.386909,186.19695 c 0,-0.10848 -0.134937,-0.21696 -0.349249,-0.32544 a 18.642541,18.642541 0 0 1 -5.207,-0.037 c -1.738313,-0.24871 -3.193521,-0.58208 -3.937,-0.76729 0.0635,0.32543 0.187854,0.58737 0.433916,0.58737 0.60325,0 3.262313,0.79375 5.013854,0.96573 1.751542,0.17198 4.045479,-0.12171 4.045479,-0.42333 z"
         id="path1003" />
      <path
         style="fill:#ffb400;fill-opacity:1;stroke:#263238;stroke-width:0.26458332;stroke-linecap:round;stroke-linejoin:round"
         inkscape:connector-curvature="0"
         d="m -41.978804,162.67549 a 27.556354,27.556354 0 0 1 5.434541,0.12171 c 3.07975,0.36248 9.961563,0.79375 10.080625,1.57162 0.119063,0.77788 -5.339291,17.12648 -5.339291,17.54717 0,0.42069 0.481541,0.84667 0.60325,1.08744 a 1.3996458,1.3996458 0 0 1 0.121708,0.54504 c 0,0 -1.479021,1.5875 -2.627312,2.01877 -1.148292,0.43127 -2.116667,0.0265 -2.354792,0.0265 -0.238125,0 -0.240771,-1.62984 -0.05821,-2.41565 0.182562,-0.78581 0.481541,-2.77812 0.542395,-2.95804 0.06085,-0.17992 3.368146,-11.80571 3.368146,-11.80571 0,0 -8.995833,1.44992 -14.36952,0.84402 -5.373688,-0.60589 -5.91873,-1.44727 -6.220355,-2.71727 -0.301624,-1.27 0.301625,-3.80471 0.301625,-3.80471 z"
         id="path1005" />
      <path
         style="fill:none;stroke:#263238;stroke-width:0.26458332;stroke-linecap:round;stroke-linejoin:round"
         inkscape:connector-curvature="0"
         d="m -42.658783,166.58868 a 3.9502291,3.9502291 0 0 1 -0.407459,0.49741 m 2.053167,-3.7465 a 22.854708,22.854708 0 0 1 -1.198562,2.53736 m 0.478895,-1.93146 a 6.4161458,6.4161458 0 0 1 -3.140604,2.64583"
         id="path1007" />
      <path
         style="fill:#ffffff;stroke:#263238;stroke-width:0.26458332;stroke-linecap:round;stroke-linejoin:round"
         inkscape:connector-curvature="0"
         d="m -28.022033,167.27924 c 0.206375,-0.0794 0.404812,-0.1614 0.592666,-0.24606 m -4.778375,1.38112 a 31.08325,31.08325 0 0 0 3.439584,-0.87048 m 3.54277,-19.18758 c 0.127,-0.50535 0.338667,-0.46567 0.169334,-0.63235 -0.232834,-0.23284 -0.420688,0.0423 -1.095375,0.42068 -0.674688,0.37836 -1.346729,0.84138 -1.346729,0.84138 a 0.67733332,0.67733332 0 0 1 0.166687,-0.37836 1.8018125,1.8018125 0 0 0 0.264583,-0.92604 c 0,-0.26458 -0.211666,-0.21166 -0.296333,0.0423 -0.08467,0.254 -0.841375,0.71437 -0.883708,0.92604 -0.04233,0.21166 -0.193146,1.04246 -0.193146,1.04246 -0.240771,0.36248 -0.240771,2.05316 -0.240771,2.05316 l -4.902729,3.683 -2.4765,2.91042 c 0,0 1.087437,1.75154 1.690687,1.51077 0.60325,-0.24077 0.904875,-0.48419 2.354792,-1.69333 1.227667,-1.02394 4.304771,-5.74675 4.304771,-5.74675 a 11.43,11.43 0 0 0 1.516062,-1.13771 3.6750625,3.6750625 0 0 0 0.915459,-2.2225 2.7887083,2.7887083 0 0 1 0.05292,-0.69321 z m -22.685374,-5.588 c 0,0 0.465666,-1.74625 2.44475,-1.397 1.979083,0.34925 3.4925,1.97908 3.84175,2.56117 0.34925,0.58208 -6.402917,-0.23284 -6.402917,-0.23284 z"
         id="path1009" />
      <path
         style="fill:#ffffff;stroke:#263238;stroke-width:0.26458332;stroke-linecap:round;stroke-linejoin:round"
         inkscape:connector-curvature="0"
         d="m -36.501929,158.01882 c 0,0 -0.460375,0.49742 0,1.28059 0.314854,0.54239 0.870479,0.95779 1.934104,0.77523 0.994833,-0.17463 2.489729,-2.64584 2.489729,-4.38415 0,-1.73831 -1.280583,-1.85208 -1.74625,-1.51342 -0.465667,0.33867 -2.677583,3.84175 -2.677583,3.84175 z"
         id="path1011" />
      <path
         style="fill:#ffffff;stroke:#263238;stroke-width:0.26458332;stroke-linecap:round;stroke-linejoin:round"
         inkscape:connector-curvature="0"
         d="m -47.053512,142.56451 c 0,0 -4.709584,2.23573 -5.373688,2.64583 -0.664104,0.41011 -1.087437,5.67532 -1.087437,6.58284 0,0.90752 0.664104,9.78958 0.84402,11.29241 0.179917,1.50284 5.979584,2.53736 7.913688,1.99232 1.934104,-0.54504 3.817937,-1.91823 3.817937,-2.40242 0,-0.48419 -0.182562,-4.58787 -0.06085,-5.37369 0.121709,-0.78581 1.2065,-4.10633 1.2065,-4.10633 l 3.296708,5.25992 c 0,0 0.346605,0.64558 1.571625,0.13758 1.751542,-0.72496 1.897063,-3.5269 1.897063,-3.5269 0,0 -1.931458,-3.38137 -2.4765,-5.07206 -0.545042,-1.69069 -0.79375,-2.96069 -1.026583,-3.26231 -0.232834,-0.30163 -5.677959,-2.83898 -6.643688,-3.50308 a 4.2941874,4.2941874 0 0 0 -3.878791,-0.66411 z"
         id="path1013" />
      <path
         style="fill:none;stroke:#263238;stroke-width:0.26458332;stroke-linecap:round;stroke-linejoin:round"
         inkscape:connector-curvature="0"
         d="m -39.806575,153.19547 -1.568979,-2.29658 m 1.314979,1.9685 -2.764896,-1.36261"
         id="path1015" />
      <path
         style="fill:#263238;stroke:#263238;stroke-width:0.26458332;stroke-linecap:round;stroke-linejoin:round"
         inkscape:connector-curvature="0"
         d="m -48.254721,170.18966 2.413,17.15029 a 0.28839583,0.28839583 0 0 0 0.351896,0.24077 v 0 a 0.2936875,0.2936875 0 0 0 0.22225,-0.30956 l -1.701271,-17.36461 z m -6.932083,0.13493 -4.03225,16.84338 a 0.28839583,0.28839583 0 0 0 0.240771,0.35189 v 0 a 0.28575,0.28575 0 0 0 0.3175,-0.20637 l 4.683125,-16.34596 z"
         id="path1017" />
      <path
         style="fill:#263238;stroke:#263238;stroke-width:0.26458332;stroke-linecap:round;stroke-linejoin:round"
         inkscape:connector-curvature="0"
         d="m -47.863137,170.11557 -2.566459,17.12648 a 0.29104166,0.29104166 0 0 0 0.264584,0.33338 v 0 a 0.28839583,0.28839583 0 0 0 0.298979,-0.23284 l 3.257021,-16.68991 z m 9.085791,0.0741 2.413,17.15029 a 0.28839583,0.28839583 0 0 0 0.351896,0.24077 v 0 a 0.2936875,0.2936875 0 0 0 0.22225,-0.30956 l -1.709208,-17.3699 z"
         id="path1019" />
      <path
         style="fill:#ffb400;fill-opacity:1;stroke:#263238;stroke-width:0.26458332;stroke-linecap:round;stroke-linejoin:round"
         inkscape:connector-curvature="0"
         d="m -59.004741,152.39114 2.936875,19.09497 h 20.886208 c 0,0 0.309562,-5.50333 -0.611188,-7.44802 -0.92075,-1.94468 -12.289896,2.22515 -12.7,2.11667 -0.304271,-0.0767 0.145521,-9.9351 0.703792,-13.78744 a 1.9102916,1.9102916 0 0 0 -1.891771,-2.18281 h -7.434791 a 1.9102916,1.9102916 0 0 0 -1.889125,2.20663 z"
         id="path1021" />
      <path
         style="fill:#263238;stroke:#263238;stroke-width:0.26458332;stroke-linecap:round;stroke-linejoin:round"
         inkscape:connector-curvature="0"
         d="m -35.792846,164.03809 c -0.92075,-1.94468 -12.289896,2.22515 -12.7,2.11667 -0.304271,-0.0767 0.145521,-9.9351 0.703792,-13.78744 a 1.8520833,1.8520833 0 1 0 -3.640667,0.0185 l 2.936875,19.09498 h 13.311188 c 0,0 0.309562,-5.49804 -0.611188,-7.44273 z"
         id="path1023" />
      <path
         style="fill:#ffffff;stroke:#263238;stroke-width:0.26458332;stroke-linecap:round;stroke-linejoin:round"
         inkscape:connector-curvature="0"
         d="m -25.225388,148.35624 c 0,0 -0.336021,0.33602 -0.841375,0.92604 m 0.788459,-0.24341 c 0,0 -0.410105,0.83343 -0.661459,1.21179"
         id="path1025" />
      <g
         transform="matrix(0.26458333,0,0,0.26458333,-92.532741,85.522991)"
         id="g1035"
         style="fill:#263238">
        <path
           id="path1029"
           d="m 40.36,276.54 c 1.66,0.72 5.71,0.63 5.72,0.63 0.01,0 -0.87,-2.65 -0.95,-2.81 -0.89,-1.87 -3.71,-4.94 -6,-4.63 a 2.73,2.73 0 0 0 -2.19,3.43 c 0.38,1.58 2,2.76 3.42,3.38 z"
           inkscape:connector-curvature="0" />
        <path
           id="path1031"
           d="m 93.51,262.73 c -2.3,-0.25 -5,2.9 -5.87,4.79 -0.07,0.16 -0.91,2.84 -0.87,2.84 -0.44,0.49 -0.9,1 -1.39,1.62 -0.9,1.1 -1.9,2.36 -2.91,3.8 a 51.13,51.13 0 0 0 -3,4.8 36.59,36.59 0 0 0 -2.58,5.8 0.19,0.19 0 0 1 0,0.07 v -2.71 c -0.27,-2.05 -2,-5.85 -4.26,-6.27 A 2.73,2.73 0 0 0 69.47,280 c -0.14,1.63 1,3.26 2.19,4.28 1.3,1.16 4.9,2.28 5.19,2.37 A 46.8,46.8 0 0 0 75.33,293 c -0.23,1.24 -0.41,2.49 -0.58,3.75 v -1.18 c -0.26,-2.05 -2,-5.85 -4.25,-6.27 a 2.74,2.74 0 0 0 -3.16,2.57 c -0.13,1.63 1,3.26 2.2,4.29 1.2,1.03 4.21,2.06 5,2.31 -0.06,0.49 -0.13,1 -0.19,1.45 -0.27,2.32 -0.54,4.64 -0.87,6.9 -0.12,0.8 -0.26,1.58 -0.4,2.36 v -1 c -0.27,-2.05 -2,-5.85 -4.26,-6.27 a 2.74,2.74 0 0 0 -3.15,2.58 c -0.13,1.62 1,3.25 2.2,4.28 a 17.5,17.5 0 0 0 4.85,2.23 c -0.17,0.8 -0.34,1.59 -0.54,2.36 -0.15,0.52 -0.25,1 -0.43,1.54 -0.18,0.54 -0.33,1 -0.49,1.52 -0.35,0.95 -0.7,1.94 -1.06,2.86 -0.25,0.65 -0.5,1.26 -0.74,1.87 0.12,-0.79 0.33,-2.35 0.34,-2.48 a 10.66,10.66 0 0 0 -1.43,-5.17 2.43,2.43 0 0 0 0,-0.6 2.73,2.73 0 0 0 -3.37,-2.33 c -2.24,0.59 -3.65,4.51 -3.76,6.57 0,0.12 0.08,1.45 0.14,2.29 -0.11,-0.49 -0.22,-1 -0.34,-1.46 -0.23,-1 -0.5,-2 -0.77,-3 -0.16,-0.51 -0.31,-1 -0.47,-1.53 -0.16,-0.53 -0.36,-1 -0.54,-1.56 -0.44,-1.21 -0.94,-2.41 -1.48,-3.61 0.86,-0.21 3.92,-1 5.15,-1.93 1.23,-0.93 2.52,-2.48 2.51,-4.11 a 2.73,2.73 0 0 0 -3,-2.8 c -2.3,0.25 -4.3,3.91 -4.71,5.93 0,0.13 -0.17,1.61 -0.23,2.43 -0.32,-0.72 -0.65,-1.44 -1,-2.16 -1,-2.06 -2.14,-4.13 -3.23,-6.19 l -1,-1.9 c 0.31,-0.07 4,-0.91 5.34,-2 1.34,-1.09 2.52,-2.47 2.51,-4.11 a 2.74,2.74 0 0 0 -3,-2.8 c -2.3,0.25 -4.29,3.91 -4.71,5.93 0,0.16 -0.23,2.29 -0.25,2.84 -0.72,-1.39 -1.43,-2.79 -2.07,-4.19 a 48.24,48.24 0 0 1 -2.26,-5.83 c 0.14,0 4,-0.9 5.38,-2 1.22,-0.94 2.52,-2.48 2.5,-4.11 a 2.73,2.73 0 0 0 -3,-2.8 c -2.3,0.25 -4.29,3.91 -4.71,5.93 0,0.16 -0.24,2.46 -0.25,2.88 0,-0.12 -0.08,-0.23 -0.12,-0.35 a 35.9,35.9 0 0 1 -1.17,-6.15 49.36,49.36 0 0 1 -0.22,-3.33 c 0.73,-0.09 4,-0.53 5.43,-1.36 1.43,-0.83 2.78,-2.19 3,-3.81 a 2.74,2.74 0 0 0 -2.63,-3.11 c -2.32,0 -4.7,3.42 -5.34,5.38 0,0.11 -0.26,1.23 -0.42,2.05 v -1.45 c 0,-1.75 0.11,-3.35 0.22,-4.76 0.07,-0.81 0.15,-1.54 0.23,-2.22 0.67,-0.46 3.34,-2.34 4.16,-3.69 0.82,-1.35 1.46,-3.22 0.86,-4.74 a 2.73,2.73 0 0 0 -3.76,-1.54 c -2.06,1.06 -2.6,5.19 -2.26,7.23 0,0.17 0.81,2.87 0.84,2.85 -0.09,0.65 -0.18,1.35 -0.26,2.12 -0.14,1.42 -0.28,3 -0.33,4.78 a 50,50 0 0 0 0.14,5.66 35.75,35.75 0 0 0 1,6.26 0.19,0.19 0 0 1 0,0.07 c -0.36,-0.57 -1.43,-2.13 -1.53,-2.24 -1.35,-1.56 -4.88,-3.79 -7,-2.88 a 2.73,2.73 0 0 0 -1.22,3.88 c 0.79,1.43 2.67,2.14 4.2,2.36 1.72,0.25 5.34,-0.8 5.63,-0.88 a 48.78,48.78 0 0 0 2.19,6.08 c 0.5,1.15 1,2.3 1.59,3.44 -0.33,-0.49 -0.63,-0.92 -0.67,-1 -1.35,-1.56 -4.88,-3.79 -7,-2.88 A 2.73,2.73 0 0 0 42.28,297 c 0.78,1.43 2.67,2.14 4.19,2.36 1.52,0.22 4.65,-0.6 5.47,-0.84 0.22,0.44 0.43,0.88 0.65,1.31 1,2.09 2.11,4.17 3.08,6.24 0.34,0.73 0.65,1.46 1,2.19 l -0.59,-0.84 c -1.35,-1.56 -4.88,-3.78 -7,-2.88 a 2.74,2.74 0 0 0 -1.21,3.89 c 0.79,1.43 2.67,2.14 4.19,2.36 a 17.68,17.68 0 0 0 5.33,-0.8 c 0.3,0.76 0.6,1.52 0.85,2.26 0.17,0.52 0.36,1 0.49,1.53 0.13,0.53 0.29,1 0.43,1.54 0.24,1 0.49,2 0.7,3 0.15,0.67 0.28,1.32 0.41,2 -0.34,-0.73 -1,-2.15 -1.09,-2.26 -1.1,-1.75 -4.25,-4.48 -6.49,-3.91 a 2.74,2.74 0 0 0 -1.78,3.66 c 0.56,1.53 2.31,2.52 3.78,3 1.63,0.49 5.22,0 5.67,0 0.22,1.07 0.41,2.12 0.59,3.11 0.6,3.43 1,6.32 1.21,8.33 0,0.36 0.08,0.68 0.11,1 h -7 l 2.54,49.57 h 11.86 l 2.54,-49.57 h -6.49 l 0.15,-0.29 c 0.89,-1.86 2.12,-4.52 3.45,-7.78 0.43,-1 0.86,-2.13 1.29,-3.27 0.44,0.09 4,0.81 5.65,0.43 1.51,-0.34 3.33,-1.19 4,-2.67 a 2.73,2.73 0 0 0 -1.51,-3.78 c -2.19,-0.74 -5.53,1.75 -6.76,3.41 -0.07,0.1 -0.74,1.25 -1.15,2 l 0.53,-1.4 c 0.35,-0.95 0.67,-1.92 1,-2.95 l 0.45,-1.53 c 0.17,-0.51 0.28,-1.06 0.42,-1.6 0.29,-1.25 0.53,-2.53 0.75,-3.83 0.83,0.3 3.82,1.34 5.36,1.23 1.54,-0.11 3.47,-0.67 4.36,-2 a 2.74,2.74 0 0 0 -0.92,-4 c -2,-1 -5.74,0.9 -7.2,2.35 -0.09,0.1 -1,1.26 -1.52,1.91 0.12,-0.78 0.24,-1.56 0.34,-2.36 0.29,-2.29 0.5,-4.62 0.73,-6.94 0.07,-0.71 0.15,-1.42 0.22,-2.13 0.3,0.11 3.82,1.42 5.55,1.3 1.53,-0.11 3.46,-0.67 4.35,-2 a 2.74,2.74 0 0 0 -0.92,-4 c -2,-1.05 -5.73,0.9 -7.2,2.35 -0.11,0.11 -1.45,1.79 -1.77,2.23 0.17,-1.56 0.35,-3.11 0.59,-4.64 a 47.09,47.09 0 0 1 1.33,-6.1 c 0.14,0 3.8,1.43 5.58,1.31 1.53,-0.11 3.46,-0.68 4.35,-2 a 2.73,2.73 0 0 0 -0.92,-4 c -2,-1.06 -5.73,0.89 -7.2,2.35 -0.11,0.11 -1.55,1.92 -1.79,2.26 l 0.09,-0.35 a 35.54,35.54 0 0 1 2.42,-5.78 c 0.53,-1 1.09,-2 1.65,-2.9 0.66,0.33 3.68,1.8 5.28,1.86 1.6,0.06 3.52,-0.29 4.56,-1.55 a 2.73,2.73 0 0 0 -0.48,-4 c -1.93,-1.28 -5.8,0.25 -7.41,1.54 -0.09,0.07 -0.91,0.88 -1.49,1.48 0.26,-0.41 0.52,-0.84 0.78,-1.22 1,-1.46 1.94,-2.73 2.82,-3.86 0.5,-0.63 1,-1.19 1.41,-1.71 0.81,0 4.08,-0.12 5.51,-0.79 1.43,-0.67 3,-1.88 3.33,-3.47 a 2.73,2.73 0 0 0 -2.27,-3.63 z m -25.45,61.75 c -1.39,3.2 -2.67,5.81 -3.58,7.62 l -0.51,1 h -0.15 c 0,-0.35 -0.1,-0.74 -0.16,-1.17 -0.28,-2 -0.72,-4.94 -1.41,-8.39 -0.21,-1.09 -0.46,-2.25 -0.73,-3.44 a 30.66,30.66 0 0 0 3.16,-1.49 20,20 0 0 0 4.61,3 c -0.41,0.97 -0.83,1.95 -1.23,2.87 z"
           inkscape:connector-curvature="0" />
        <path
           id="path1033"
           d="m 81.4,277.43 c 0,0 0.74,-2.69 0.76,-2.87 0.29,-2.05 -0.36,-6.16 -2.45,-7.17 A 2.74,2.74 0 0 0 76,269 c -0.56,1.53 0.15,3.41 1,4.71 1,1.56 4.4,3.72 4.4,3.72 z"
           inkscape:connector-curvature="0" />
      </g>
      <path
         id="path1037"
         d="M -78.991366,186.74728 H 28.627903 v 1.31763 H -78.991366 Z"
         inkscape:connector-curvature="0"
         style="fill:#263238;stroke-width:0.26458332" />
    </g>
  </g>
</svg>
