<?xml version="1.0" encoding="UTF-8" standalone="no"?>
<svg
   xmlns:dc="http://purl.org/dc/elements/1.1/"
   xmlns:cc="http://creativecommons.org/ns#"
   xmlns:rdf="http://www.w3.org/1999/02/22-rdf-syntax-ns#"
   xmlns:svg="http://www.w3.org/2000/svg"
   xmlns="http://www.w3.org/2000/svg"
   xmlns:sodipodi="http://sodipodi.sourceforge.net/DTD/sodipodi-0.dtd"
   xmlns:inkscape="http://www.inkscape.org/namespaces/inkscape"
   viewBox="0 0 440.35999 430.16602"
   version="1.1"
   id="svg5082"
   sodipodi:docname="work.svg"
   width="440.35999"
   height="430.16602"
   inkscape:version="0.92.4 (5da689c313, 2019-01-14)">
  <metadata
     id="metadata5088">
    <rdf:RDF>
      <cc:Work
         rdf:about="">
        <dc:format>image/svg+xml</dc:format>
        <dc:type
           rdf:resource="http://purl.org/dc/dcmitype/StillImage" />
        <dc:title></dc:title>
      </cc:Work>
    </rdf:RDF>
  </metadata>
  <defs
     id="defs5086" />
  <sodipodi:namedview
     pagecolor="#ffffff"
     bordercolor="#666666"
     borderopacity="1"
     objecttolerance="10"
     gridtolerance="10"
     guidetolerance="10"
     inkscape:pageopacity="0"
     inkscape:pageshadow="2"
     inkscape:window-width="1600"
     inkscape:window-height="837"
     id="namedview5084"
     showgrid="false"
     inkscape:zoom="0.96397414"
     inkscape:cx="198.35439"
     inkscape:cy="249.56675"
     inkscape:window-x="-8"
     inkscape:window-y="-8"
     inkscape:window-maximized="1"
     inkscape:current-layer="svg5082" />
  <g
     id="g5229"
     transform="translate(-29.82,-43.063985)">
    <path
       id="path4804"
       d="M 283.27,110.99 H 449.9 v 7.31 H 283.27 Z m 9.35,7.31 h 7.31 v 24.17 h -7.31 z"
       inkscape:connector-curvature="0"
       style="fill:#ebebeb" />
    <path
       id="path4806"
       d="m 292.62,118.3 h 7.31 v 7.47 h -7.31 z"
       inkscape:connector-curvature="0"
       style="fill:#dbdbdb" />
    <path
       id="path4808"
       d="m 433.26,118.3 h 7.31 v 24.17 h -7.31 z"
       inkscape:connector-curvature="0"
       style="fill:#ebebeb" />
    <path
       id="path4810"
       d="m 433.26,118.3 h 7.31 v 7.47 h -7.31 z"
       inkscape:connector-curvature="0"
       style="fill:#dbdbdb" />
    <path
       id="path4812"
       d="m 330.11,64.42 v 46.57 H 318.38 V 64.42 Z"
       inkscape:connector-curvature="0"
       style="fill:#c7c7c7" />
    <path
       id="path4814"
       d="m 330.1,61.93 v 5.12 h -11.73 v -5.12 z m 0.01,11.67 v 1.9 h -11.73 v -1.9 z m 1.46,26.16 v 5.12 h -13.19 v -5.12 z"
       inkscape:connector-curvature="0"
       style="fill:#dbdbdb" />
    <path
       id="path4816"
       d="m 338.3,56.66 v 54.33 h -8.2 V 56.66 Z"
       inkscape:connector-curvature="0"
       style="fill:#dbdbdb" />
    <path
       id="path4818"
       d="m 336.63,61.77 v 20.89 h -4.92 V 61.77 Z"
       inkscape:connector-curvature="0"
       style="fill:#ebebeb" />
    <path
       id="path4820"
       d="m 357.953,66.996 38.638,38.195 -5.765,5.831 -38.637,-38.195 z"
       inkscape:connector-curvature="0"
       style="fill:#c7c7c7" />
    <path
       id="path4822"
       d="m 371.534,82.683 14.856,14.686 -3.46,3.499 -14.855,-14.686 z"
       inkscape:connector-curvature="0"
       style="fill:#dbdbdb" />
    <path
       id="path4824"
       d="m 352.21,69.73 v 41.26 H 338.29 V 69.73 Z"
       inkscape:connector-curvature="0"
       style="fill:#a6a6a6" />
    <path
       id="path4826"
       d="m 352.22,102.78 v 3.85 H 338.3 v -3.85 z m 0,-4.02 v 1.49 H 338.3 v -1.49 z"
       inkscape:connector-curvature="0"
       style="fill:#c7c7c7" />
    <path
       id="path4828"
       d="M 318.38,72.22 V 111 h -9.61 V 72.22 Z"
       inkscape:connector-curvature="0"
       style="fill:#a6a6a6" />
    <path
       id="path4830"
       d="m 318.38,103.27 v 3.61 h -9.61 v -3.61 z m 0,-23.06 v 3.61 h -9.61 v -3.61 z m 0,6.09 v 1.4 h -9.61 v -1.4 z"
       inkscape:connector-curvature="0"
       style="fill:#c7c7c7" />
    <path
       id="path4832"
       d="m 420.21,61.31 c -8.2,8 -9.58,20.46 -7.85,31.34 0.05,0.25 0.43,0.18 0.43,-0.05 0,-2.48 -0.08,-4.93 -0.07,-7.38 0,-0.11 0.08,-0.22 0.13,-0.33 a 16.53,16.53 0 0 0 5.33,-5.73 c 1.37,-2.69 1.91,-5.73 2.95,-8.54 0.1,-0.27 -0.19,-0.19 -0.37,-0.06 -5,3.68 -6.58,7.64 -8,12.94 a 44.26,44.26 0 0 1 0.87,-8.24 28.08,28.08 0 0 1 6.82,-13.73 c 0.11,-0.14 -0.1,-0.36 -0.24,-0.22 z"
       inkscape:connector-curvature="0"
       style="fill:#a6a6a6" />
    <path
       id="path4834"
       d="m 421.75,62.25 c 1.42,0 2.3,2.3 3.4,3 a 1.06,1.06 0 0 0 1.56,-0.24 c 1.09,-1.53 -0.41,-3.4 -1.81,-4.45 a 15.39,15.39 0 0 0 2.92,1.34 1,1 0 0 0 1.32,-0.79 c 0.48,-2.07 -2.12,-3 -3.91,-3 0.87,-0.6 3.35,-2.23 2,-3 -1.35,-0.77 -4.25,1.53 -5.19,2.31 -1.4,1.13 -3.06,2.82 -3.13,4.59 -0.05,1.99 1.76,0.67 2.84,0.24 z"
       inkscape:connector-curvature="0"
       style="fill:#dbdbdb" />
    <path
       id="path4836"
       d="m 421.35,62.6 c 1.8,-0.82 5.27,0.36 5.56,-0.32 0.6,-1.39 -2.17,-2.35 -3.67,-2.53 1.38,-0.38 4,-1 3.94,-2.3 -0.1,-1.62 -4.05,-0.23 -6.05,1.31 -2.51,1.93 -2.5,3.79 -2.08,4.16 0.42,0.37 2,-0.19 2.3,-0.32 z"
       inkscape:connector-curvature="0"
       style="fill:#ebebeb" />
    <path
       id="path4838"
       d="m 401.53,60.52 c 8.5,7.71 10.35,20.07 9,31 0,0.25 -0.42,0.2 -0.43,0 -0.09,-2.48 -0.11,-4.93 -0.21,-7.38 l -0.14,-0.32 a 16.52,16.52 0 0 1 -5.54,-5.52 c -1.48,-2.64 -2.13,-5.66 -3.28,-8.43 -0.11,-0.27 0.18,-0.2 0.37,-0.07 5.13,3.49 6.87,7.39 8.5,12.62 a 44.3,44.3 0 0 0 -1.18,-8.2 28.09,28.09 0 0 0 -7.34,-13.46 0.17327723,0.17327723 0 0 1 0.25,-0.24 z"
       inkscape:connector-curvature="0"
       style="fill:#a6a6a6" />
    <path
       id="path4840"
       d="m 400,61.51 c -1.41,0.1 -2.21,2.39 -3.28,3.09 a 1.07,1.07 0 0 1 -1.57,-0.18 c -1.15,-1.48 0.28,-3.41 1.64,-4.52 a 15.82,15.82 0 0 1 -2.79,1.46 1,1 0 0 1 -1.35,-0.74 c -0.55,-2.06 2,-3.08 3.79,-3.19 -0.89,-0.57 -3.43,-2.1 -2.14,-3 1.29,-0.9 4.3,1.37 5.28,2.1 1.44,1.08 3.16,2.71 3.29,4.47 0.13,2.11 -1.74,0.9 -2.87,0.51 z"
       inkscape:connector-curvature="0"
       style="fill:#dbdbdb" />
    <path
       id="path4842"
       d="m 400.45,61.84 c -1.84,-0.75 -5.25,0.57 -5.57,-0.11 -0.65,-1.36 2.08,-2.42 3.56,-2.66 -1.39,-0.32 -4.05,-0.82 -4,-2.15 0,-1.62 4,-0.38 6.08,1.08 2.59,1.83 2.65,3.69 2.25,4.08 -0.4,0.39 -2.02,-0.08 -2.32,-0.24 z"
       inkscape:connector-curvature="0"
       style="fill:#ebebeb" />
    <path
       id="path4844"
       d="m 410.23,80.89 a 81.71,81.71 0 0 0 2.64,12.19 0.30103986,0.30103986 0 0 0 0.59,-0.12 c -0.56,-3.76 -1.58,-7.44 -2.13,-11.2 a 56.06,56.06 0 0 1 -0.66,-11.5 c 0.36,-6.34 2.08,-13.07 6.21,-18 0.09,-0.12 -0.1,-0.28 -0.19,-0.17 -8.28,9.64 -7,21.47 -6.95,22.53 -1.17,-4 -2.38,-8.57 -6.81,-12.64 -0.19,-0.17 -0.34,-0.09 -0.31,0.21 0.79,7.41 2.85,11.27 7.15,15.23 0.12,1.15 0.23,2.31 0.46,3.47 z"
       inkscape:connector-curvature="0"
       style="fill:#a6a6a6" />
    <path
       id="path4846"
       d="m 417,53.34 c 1.49,-0.66 3.54,1.23 5,1.36 a 1.21,1.21 0 0 0 1.49,-1 c 0.37,-2.13 -2.13,-3.33 -4.11,-3.71 1.25,-0.07 2.48,0.26 3.71,-0.07 a 1.19,1.19 0 0 0 1,-1.49 c -0.55,-2.39 -3.71,-2 -5.59,-1.18 0.6,-1.06 2.35,-4 0.58,-4.18 -1.77,-0.18 -3.64,3.73 -4.23,5 -0.88,1.88 -1.76,4.47 -0.93,6.34 0.89,2.16 2.13,-0.07 3.08,-1.07 z"
       inkscape:connector-curvature="0"
       style="fill:#dbdbdb" />
    <path
       id="path4848"
       d="m 416.71,53.91 c 1.46,-1.76 5.65,-2.28 5.61,-3.14 -0.08,-1.74 -3.43,-1.34 -5.08,-0.78 1.24,-1.08 3.68,-3 2.93,-4.36 -0.92,-1.63 -4.31,1.8 -5.62,4.4 -1.64,3.27 -0.68,5.19 -0.06,5.37 0.85,0.24 1.98,-1.2 2.22,-1.49 z"
       inkscape:connector-curvature="0"
       style="fill:#ebebeb" />
    <path
       id="path4850"
       d="M 404.78,83.12 401.13,111 h 22.21 c -0.46,-2.47 -4.59,-27.91 -4.59,-27.91 z"
       inkscape:connector-curvature="0"
       style="fill:#dbdbdb" />
    <path
       id="path4852"
       d="m 55.86,53.71 h 164.88 v 215.5 H 55.86 Z m 160.53,4.35 H 60.21 v 206.8 h 156.18 z"
       inkscape:connector-curvature="0"
       style="fill:#ebebeb" />
    <path
       id="path4854"
       d="m 137.82,59.19 h 4.35 v 207.84 h -4.35 z"
       inkscape:connector-curvature="0"
       style="fill:#ebebeb" />
    <path
       id="path4856"
       d="M 224.68,68.55 H 51.91 V 62.5 h 172.77 z m 0,6.81 H 51.91 v -6.05 h 172.77 z m 0,6.82 H 51.91 v -6.05 h 172.77 z m 0,6.81 H 51.91 v -6.05 h 172.77 z m 0,6.81 H 51.91 v -6.05 h 172.77 z m 0,6.81 H 51.91 v -6.05 h 172.77 z m 0,6.8 H 51.91 v -6.05 h 172.77 z m 0,6.82 H 51.91 v -6.05 h 172.77 z m 0,6.81 H 51.91 v -6.05 h 172.77 z"
       inkscape:connector-curvature="0"
       style="fill:#ebebeb" />
    <path
       id="path4858"
       d="m 64.83,61.27 h 1.09 v 139.55 h -1.09 z"
       inkscape:connector-curvature="0"
       style="fill:#263238" />
    <path
       id="path4860"
       d="m 63.44,205.88 h 3.86 l -0.97,-5.54 H 64.41 Z M 60.91,61.27 H 62 v 201.88 h -1.09 z"
       inkscape:connector-curvature="0"
       style="fill:#263238" />
    <path
       id="path4862"
       d="m 59.53,267.23 h 3.85 l -0.96,-5.55 h -1.93 z"
       inkscape:connector-curvature="0"
       style="fill:#263238" />
    <path
       id="path4864"
       d="M 231.43,65.52 H 45.17 V 52.85 h 186.26 z m 73.52,213.66 H 408.98 V 423.15 H 304.95 Z"
       inkscape:connector-curvature="0"
       style="fill:#dbdbdb" />
    <path
       id="path4866"
       d="m 299.91,273.84 h 114.11 v 5.34 H 299.91 Z"
       inkscape:connector-curvature="0"
       style="fill:#ebebeb" />
    <path
       id="path4868"
       d="m 414.02,273.84 h 35.89 v 5.34 h -35.89 z"
       inkscape:connector-curvature="0"
       style="fill:#dbdbdb" />
    <path
       id="path4870"
       d="m 408.98,279.18 h 35.25 v 143.97 h -35.25 z"
       inkscape:connector-curvature="0"
       style="fill:#ebebeb" />
    <path
       id="path4872"
       d="m 397.77,345.81 h -81.62 v -46.13 h 81.62 z m -81.37,-0.25 h 81.12 V 299.93 H 316.4 Z"
       inkscape:connector-curvature="0"
       style="fill:#a6a6a6" />
    <path
       id="path4874"
       d="m 345.57,313.16 h 15.89 v 9.13 h -15.89 z"
       inkscape:connector-curvature="0"
       style="fill:#a6a6a6" />
    <path
       id="path4876"
       d="m 366.28,321.73 h -16.14 v -8 h 16.14 z m -15.89,-0.25 H 366 V 314 h -15.61 z m 47.38,82.29 h -81.62 v -46.13 h 81.62 z m -81.37,-0.25 h 81.12 V 357.89 H 316.4 Z"
       inkscape:connector-curvature="0"
       style="fill:#a6a6a6" />
    <path
       id="path4878"
       d="m 345.57,371.12 h 15.89 v 9.13 h -15.89 z"
       inkscape:connector-curvature="0"
       style="fill:#a6a6a6" />
    <path
       id="path4880"
       d="m 366.28,379.69 h -16.14 v -8 h 16.14 z m -15.89,-0.25 H 366 v -7.51 h -15.61 z"
       inkscape:connector-curvature="0"
       style="fill:#a6a6a6" />
    <ellipse
       id="ellipse4882"
       ry="9.4799995"
       rx="172.87"
       cy="463.75"
       cx="250"
       style="fill:#ebebeb" />
    <path
       id="path4884"
       d="m 29.82,422.79 55.04,-0.24 55.05,-0.09 110.09,-0.16 110.09,0.16 55.04,0.09 55.05,0.24 -55.05,0.25 -55.04,0.09 -110.09,0.16 -110.09,-0.16 -55.05,-0.09 z"
       inkscape:connector-curvature="0"
       style="fill:#263238" />
    <path
       style="fill:#ffb400;fill-opacity:1"
       id="path4886"
       d="m 406.21,348.6 c 0,0 20.22,-4.58 31.3,-14.79 11.08,-10.21 17.27,-28.5 17.27,-28.5 a 173.42,173.42 0 0 0 -22.67,6 c -1.81,1.93 -5.26,5.92 -6.86,9.69 a 47.14,47.14 0 0 1 -0.06,-6.93 30.79,30.79 0 0 0 -7.19,4.33 c -9.19,8.04 -11.79,30.2 -11.79,30.2 z"
       inkscape:connector-curvature="0" />
    <path
       id="path4888"
       d="m 442.16,314.2 c 2.75,-1.91 5.56,-3.75 8.3,-5.67 a 0.16,0.16 0 0 0 -0.17,-0.27 254.76,254.76 0 0 0 -15.31,9.92 c -1.73,1.21 -3.43,2.48 -5.11,3.77 0.11,-0.2 0.23,-0.4 0.35,-0.6 0.61,-1 1.25,-2 1.88,-3 a 42.84,42.84 0 0 1 4.3,-5.73 c 0.06,-0.06 0,-0.16 -0.1,-0.09 -1.58,1.81 -3.15,3.61 -4.59,5.53 -0.68,0.92 -1.31,1.87 -1.92,2.84 -0.31,0.5 -0.61,1 -0.9,1.52 l -0.31,0.53 c -2.61,2.05 -5.16,4.19 -7.59,6.45 a 93.49,93.49 0 0 0 -4.34,4.34 c 0.78,-2.45 1.47,-4.92 2.37,-7.33 0,-0.08 -0.1,-0.12 -0.13,0 -0.88,2.52 -1.84,5.06 -2.53,7.66 -1.54,1.67 -3,3.41 -4.42,5.21 0,-0.11 0.05,-0.22 0.07,-0.33 0.23,-1 0.47,-1.9 0.73,-2.85 0.49,-1.83 1,-3.64 1.64,-5.44 a 31.79,31.79 0 0 1 5.43,-10.25 c 0.06,-0.07 0,-0.17 -0.1,-0.1 -3.95,4.68 -6.26,10.28 -7.74,16.17 -0.22,0.86 -0.42,1.72 -0.62,2.59 -0.1,0.46 -0.22,0.93 -0.3,1.4 -0.61,0.82 -1.21,1.66 -1.78,2.51 a 87.53,87.53 0 0 0 -8.56,16.78 192.8,192.8 0 0 0 -6.48,20.19 0.11,0.11 0 0 0 0.21,0 c 3.95,-11.82 8,-23.82 14.76,-34.4 1.43,-2.23 3,-4.38 4.62,-6.46 a 37.93,37.93 0 0 0 9.83,-2 43.47,43.47 0 0 0 9.85,-4.76 60.25,60.25 0 0 0 5.05,-3.82 c 0.08,-0.06 0,-0.17 -0.09,-0.1 a 40.25,40.25 0 0 1 -9.26,5.6 51,51 0 0 1 -10.2,3.49 c -1.49,0.32 -3,0.56 -4.52,0.77 a 84.84,84.84 0 0 1 6,-6.61 c 0.68,-0.68 1.39,-1.33 2.09,-2 a 48.44,48.44 0 0 1 7.47,-4.28 c 3.31,-1.6 6.58,-3.3 9.85,-5 1.85,-0.94 3.69,-1.91 5.56,-2.82 0.08,0 0,-0.15 -0.08,-0.11 -3.32,1.6 -6.69,3.1 -10.05,4.64 -3.15,1.44 -6.35,2.89 -9.38,4.6 l -0.38,0.22 c 2.74,-2.38 5.57,-4.65 8.47,-6.84 2.65,-1.98 5.36,-3.96 8.13,-5.87 z"
       inkscape:connector-curvature="0"
       style="fill:#263238" />
    <path
       id="path4890"
       d="m 441,324.62 c -1.65,0.72 -3.32,1.36 -4.95,2.12 -1.63,0.76 -3.26,1.7 -4.85,2.64 -0.07,0 0,0.14 0.07,0.11 1.61,-0.77 3.24,-1.5 4.84,-2.3 1.6,-0.8 3.25,-1.7 4.93,-2.44 0.09,-0.03 0.05,-0.16 -0.04,-0.13 z"
       inkscape:connector-curvature="0"
       style="fill:#263238" />
    <path
       style="fill:#ffb400;fill-opacity:1"
       id="path4892"
       d="m 340.54,246.73 a 28.89,28.89 0 0 1 6,16.79 c 0.06,1.81 -0.22,4.33 -0.43,7.31 7.53,4 13.19,11.27 13.19,11.27 -4.28,-2.57 -10.16,-3.61 -13.33,-3.19 a 39.47,39.47 0 0 0 0.77,6 c 1.4,-0.08 4.1,0.11 8.57,1.7 a 19.09,19.09 0 0 0 -7.73,1.53 c 3.6,11.47 14.32,23.24 43.89,28.25 a 62.05,62.05 0 0 0 -5.24,-41.63 c -8.81,-17.39 -45.69,-28.03 -45.69,-28.03 z"
       inkscape:connector-curvature="0" />
    <path
       id="path4894"
       d="m 401.76,365.48 c -0.51,-4.9 -1.16,-9.78 -1.91,-14.65 a 294.26,294.26 0 0 0 -6,-28.95 114.64,114.64 0 0 0 -4.27,-13.19 20.89,20.89 0 0 0 0.11,-2.37 v -2.84 c 0,-1.9 -0.11,-3.79 -0.28,-5.68 a 67.14,67.14 0 0 0 -1.81,-11.09 c -0.54,-2.1 -1.17,-4.18 -1.79,-6.26 a 0.07,0.07 0 1 0 -0.13,0 81.14,81.14 0 0 1 2.18,11.07 102.83,102.83 0 0 1 1,11.1 c 0,1 0.06,2 0.06,3 v 1.3 a 94.93,94.93 0 0 0 -5,-10.31 124.84,124.84 0 0 0 -10.12,-15.15 6.51,6.51 0 0 0 -0.24,-1.65 c -0.14,-0.66 -0.29,-1.32 -0.43,-2 -0.31,-1.35 -0.65,-2.7 -1,-4 -0.74,-2.68 -1.71,-5.27 -2.55,-7.92 0,-0.08 -0.15,-0.05 -0.13,0 0.78,2.62 1.3,5.33 1.9,8 0.3,1.32 0.59,2.64 0.88,4 l 0.42,2 v 0.15 q -1.8,-2.27 -3.67,-4.46 c -5.64,-6.62 -11.84,-12.73 -18.07,-18.8 -0.77,-0.75 -1.55,-1.47 -2.33,-2.21 -0.06,-0.06 -0.15,0 -0.09,0.1 6,6.22 11.82,12.5 17.37,19.08 1.32,1.56 2.62,3.15 3.9,4.75 -0.67,-0.46 -1.35,-0.9 -2,-1.34 -1.72,-1.12 -3.46,-2.22 -5.26,-3.23 -1.8,-1.01 -3.6,-2 -5.44,-2.9 -1.84,-0.9 -3.93,-1.7 -5.76,-2.77 -0.08,0 -0.15,0.09 -0.07,0.12 a 44.38,44.38 0 0 1 5.4,3 c 1.8,1.07 3.6,2.15 5.37,3.27 1.77,1.12 3.48,2.19 5.21,3.31 1.44,0.93 2.86,1.95 4.35,2.82 a 139.66,139.66 0 0 1 9.47,13.79 101.68,101.68 0 0 1 4.9,9.29 l -1.06,-0.46 -2.71,-1.2 c -1.74,-0.78 -3.49,-1.53 -5.23,-2.29 -3.32,-1.44 -6.69,-2.77 -9.94,-4.35 a 45.12,45.12 0 0 1 -5.31,-2.95 c -0.07,-0.05 -0.14,0.07 -0.07,0.12 6.07,4.18 12.87,7.13 19.58,10.1 l 2.91,1.29 c 0.8,0.35 1.6,0.75 2.42,1.06 a 103.76,103.76 0 0 1 5,13.7 279.71,279.71 0 0 1 6.48,28.67 c 1.7,9.66 2.84,19.38 3.73,29.15 0.11,1.22 0.22,2.43 0.36,3.65 a 0.39,0.39 0 0 0 0.77,0 c -0.07,-4.97 -0.58,-9.94 -1.1,-14.87 z"
       inkscape:connector-curvature="0"
       style="fill:#263238" />
    <path
       id="path4896"
       d="m 383.77,283.8 c -0.55,-3 -1.35,-5.95 -2.16,-8.89 0,-0.09 -0.15,-0.05 -0.13,0 0.75,2.89 1.29,5.83 1.83,8.77 0.54,2.94 1,6 1.46,9 h 0.08 a 78.4,78.4 0 0 0 -1.08,-8.88 z M 371,292 a 54.06,54.06 0 0 0 -6.43,-3.62 c -1.08,-0.55 -2.17,-1.08 -3.26,-1.61 -1.09,-0.53 -2.3,-1 -3.42,-1.56 a 0.07,0.07 0 1 0 -0.06,0.12 c 1.08,0.54 2.1,1.2 3.17,1.78 1.07,0.58 2.18,1.2 3.28,1.79 2.16,1.16 4.29,2.45 6.56,3.39 A 0.17,0.17 0 0 0 371,292 Z"
       inkscape:connector-curvature="0"
       style="fill:#263238" />
    <path
       id="path4898"
       d="m 406.58,313.58 c 0,0 18.71,-4.46 27.3,-17 8.2,-12 10.85,-32.42 11.06,-34.21 -0.34,1.65 -4.2,19.5 -16.93,27.82 -9.75,6.36 -19.17,11.6 -21.43,23.39 z"
       inkscape:connector-curvature="0"
       style="opacity:0.1;fill:#263238" />
    <path
       id="path4900"
       d="m 423.85,281.26 a 23.88,23.88 0 0 0 -6.9,11.36 c 0,0 0.05,0.06 0.06,0 a 27.81,27.81 0 0 1 6.93,-11.27 c 0.06,-0.04 -0.03,-0.15 -0.09,-0.09 z"
       inkscape:connector-curvature="0"
       style="fill:#263238" />
    <path
       style="fill:#ffb400;fill-opacity:1"
       id="path4902"
       d="m 406.58,313.58 c 0,0 18.71,-4.46 27.3,-17 8.2,-12 10.85,-32.42 11.06,-34.21 a 0.69,0.69 0 0 0 0,-0.13 c 0,0 -9,12.75 -18.4,16 -9.4,3.25 -22.66,14.5 -19.96,35.34 z"
       inkscape:connector-curvature="0" />
    <path
       id="path4904"
       d="m 441.65,269.27 a 76.88,76.88 0 0 1 -5.79,9.88 39.54,39.54 0 0 1 -7.69,7.92 c -2.54,2 -5.23,3.85 -7.8,5.83 l 0.06,-0.1 c 0.48,-0.71 1,-1.41 1.53,-2.09 1.07,-1.37 2.24,-2.66 3.42,-3.94 2.32,-2.52 4.7,-5 6.78,-7.72 a 28.63,28.63 0 0 0 3,-4.83 c 0,-0.08 -0.09,-0.13 -0.13,-0.05 -3,6.32 -9.09,10.37 -13.42,15.71 a 28.56,28.56 0 0 0 -1.73,2.36 9.79,9.79 0 0 0 -1.07,1.9 39.38,39.38 0 0 0 -6.39,6.45 27.82,27.82 0 0 1 0.75,-3.63 18.41,18.41 0 0 1 2,-4.73 c 0,-0.08 -0.07,-0.16 -0.12,-0.08 a 22.63,22.63 0 0 0 -2.18,4.71 16.43,16.43 0 0 0 -0.68,4 37.56,37.56 0 0 0 -2.53,3.93 l 0.24,-1.2 c 0.37,-1.86 0.78,-3.72 1.26,-5.56 a 33.39,33.39 0 0 1 4.5,-10.54 c 0.05,-0.07 -0.06,-0.15 -0.11,-0.08 a 40.11,40.11 0 0 0 -5,10.31 c -0.6,1.84 -1.07,3.71 -1.49,5.59 -0.21,0.92 -0.39,1.84 -0.57,2.77 -0.09,0.48 -0.19,1 -0.27,1.46 a 67.49,67.49 0 0 0 -4.32,12.68 189.23,189.23 0 0 0 -4,23.65 198.94,198.94 0 0 0 -1.29,25.13 c 0,1 0.08,2.1 0.14,3.15 0,0.27 0.42,0.31 0.43,0 0.19,-4.15 0.3,-8.31 0.54,-12.46 0.24,-4.15 0.61,-8.29 1,-12.42 a 221.9,221.9 0 0 1 3.9,-24.19 c 1.52,-6.84 3.48,-13.72 7.22,-19.71 a 37.39,37.39 0 0 1 6.75,-8 c 2.62,-2.35 5.49,-4.42 8.26,-6.6 a 45,45 0 0 0 7.57,-7.28 59.75,59.75 0 0 0 5.95,-9.65 c 0.44,-0.85 0.89,-1.69 1.34,-2.54 0.09,-0.04 -0.02,-0.11 -0.06,-0.03 z"
       inkscape:connector-curvature="0"
       style="fill:#263238" />
    <path
       id="path4906"
       d="m 438.42,272 a 64.11,64.11 0 0 1 -4.17,7.29 c 0,0.05 0.05,0.11 0.09,0.05 a 50.84,50.84 0 0 0 4.21,-7.3 c 0.04,-0.04 -0.1,-0.11 -0.13,-0.04 z"
       inkscape:connector-curvature="0"
       style="fill:#263238" />
    <path
       style="fill:#ffb400;fill-opacity:1"
       id="path4908"
       d="m 337.94,305.31 c 0,0 -0.3,26.58 15.59,34.26 15.89,7.68 24.42,1.28 35.22,3.85 -0.42,-0.64 -8.13,-11.72 -20.39,-14.77 -12.63,-3.15 -26.6,-12.26 -30.42,-23.34 z"
       inkscape:connector-curvature="0" />
    <path
       id="path4910"
       d="m 337.94,305.31 c 0,0 -0.3,26.58 15.59,34.26 15.89,7.68 24.42,1.28 35.22,3.85 a 59.8,59.8 0 0 0 -18.07,-5.33 c -10.04,-1.22 -29.19,-7.75 -32.74,-32.78 z"
       inkscape:connector-curvature="0"
       style="opacity:0.1" />
    <path
       id="path4912"
       d="m 389.8,343.89 a 27.38,27.38 0 0 0 -6.32,-4.28 c -0.34,-0.16 -0.7,-0.29 -1,-0.44 -0.17,-0.21 -0.35,-0.41 -0.54,-0.61 a 20,20 0 0 0 -1.49,-1.42 22,22 0 0 0 -3.2,-2.31 c -2.63,-1.55 -5.52,-2.63 -8.21,-4.07 -0.08,0 -0.15,0.08 -0.07,0.12 1.33,0.69 2.62,1.46 3.92,2.21 1.3,0.75 2.54,1.44 3.77,2.23 a 27.8,27.8 0 0 1 3.15,2.36 c 0.28,0.24 0.54,0.51 0.81,0.78 a 42.89,42.89 0 0 0 -5.37,-1.43 c -2.91,-0.59 -5.85,-1 -8.76,-1.62 a 43.58,43.58 0 0 1 -4.21,-1.14 c -1.32,-1.06 -2.64,-2.12 -3.89,-3.27 a 31.78,31.78 0 0 1 -4.11,-4.56 c -0.05,-0.07 -0.17,0 -0.11,0.08 a 48.73,48.73 0 0 0 6.51,7.19 c -0.68,-0.26 -1.36,-0.54 -2,-0.84 A 32.86,32.86 0 0 1 345.14,321.6 c -0.05,-0.08 -0.17,0 -0.12,0.07 a 37.14,37.14 0 0 0 11,10.52 32.69,32.69 0 0 0 6.92,3.27 63.24,63.24 0 0 0 8.6,2 60.77,60.77 0 0 1 8.43,2 25.27,25.27 0 0 1 7.06,3.72 33.08,33.08 0 0 1 9.42,11.82 c 3,6 4.44,12.78 5.24,19.44 0,0.28 0.47,0.28 0.45,0 -0.74,-11.16 -3.73,-22.79 -12.34,-30.55 z"
       inkscape:connector-curvature="0"
       style="fill:#263238" />
    <path
       id="path4914"
       d="m 371.35,335.23 a 9.16,9.16 0 0 0 -3.27,-3 11.92,11.92 0 0 1 -3.88,-3.21 c -0.05,-0.07 -0.17,0 -0.12,0.07 a 13,13 0 0 0 3.43,3.07 11.94,11.94 0 0 1 3.74,3.1 c 0.05,0.09 0.14,0.03 0.1,-0.03 z"
       inkscape:connector-curvature="0"
       style="fill:#263238" />
    <path
       id="path4916"
       d="m 379.79,363.51 0.72,14.62 2.22,44.66 h 33.34 l 2.22,-44.66 0.72,-14.62 z"
       inkscape:connector-curvature="0"
       style="fill:#37474f" />
    <path
       id="path4918"
       d="m 379.79,363.51 0.72,14.62 h 37.78 l 0.72,-14.62 z"
       inkscape:connector-curvature="0"
       style="fill:#263238" />
    <path
       id="path4920"
       d="m 421.34,371.36 h -43.9 v -13.95 h 43.9 z"
       inkscape:connector-curvature="0"
       style="fill:#37474f" />
    <path
       id="path4922"
       d="m 235.19,456.64 c -2.33,0.75 -68.82,-0.1 -71.33,-1.74 -1,-0.6 -1.4,-10.3 -1.6,-22 v -0.37 q -0.07,-3.63 -0.08,-7.43 v -1 l 3.22,-34.49 44.48,0.43 -4.38,34.17 v 1.36 l -0.27,7.07 v 0.73 c 0,0 25.21,11.63 27.77,13.73 2.56,2.1 4.53,8.79 2.19,9.54 z"
       inkscape:connector-curvature="0"
       style="fill:#ffc4c0" />
    <path
       id="path4924"
       d="m 235.19,456.64 c -2.33,0.75 -68.82,-0.1 -71.33,-1.74 -1,-0.6 -1.4,-10.3 -1.6,-22 v -0.37 q -0.07,-3.63 -0.08,-7.43 v -1 l 43.32,0.11 v 1.36 l -0.27,7.07 v 0.73 c 0,0 25.21,11.63 27.77,13.73 2.56,2.1 4.53,8.79 2.19,9.54 z"
       inkscape:connector-curvature="0"
       style="fill:#ebebeb" />
    <path
       style="fill:#ffb400;fill-opacity:1"
       id="path4926"
       d="m 235.2,456.63 c -1.2,0.39 -19.26,0.35 -36.92,0 -3.55,-0.07 -7.08,-0.15 -10.45,-0.24 -12.59,-0.34 -23,-0.86 -24,-1.49 -1,-0.63 -1.4,-10 -1.59,-21.54 v -0.87 h 0.05 l 42.85,0.07 v 0.74 c 0,0 25.31,11.7 27.86,13.79 2.55,2.09 4.53,8.8 2.2,9.54 z"
       inkscape:connector-curvature="0" />
    <path
       id="path4928"
       d="m 234.47,454.05 c -11.2,-0.42 -56.43,-1.05 -67.54,-0.61 -0.09,0 -0.09,0.07 0,0.07 11.1,0.66 56.33,0.92 67.54,0.72 0.24,0 0.24,-0.17 0,-0.18 z m -24.54,-21.3 c -4.4,-0.88 -9.8,-0.27 -13.21,2.83 -0.13,0.12 0,0.31 0.18,0.26 a 62.51,62.51 0 0 1 13,-2.53 0.2804015,0.2804015 0 0 0 0.03,-0.56 z m 3.16,1.96 c -4.4,-0.88 -9.8,-0.27 -13.21,2.83 -0.13,0.12 0,0.31 0.18,0.26 a 62.51,62.51 0 0 1 13,-2.53 0.2804015,0.2804015 0 0 0 0.03,-0.56 z m 3.16,1.96 c -4.4,-0.88 -9.8,-0.27 -13.21,2.83 -0.13,0.12 0,0.31 0.18,0.26 a 62.51,62.51 0 0 1 13,-2.53 0.2804015,0.2804015 0 0 0 0.03,-0.56 z"
       inkscape:connector-curvature="0"
       style="fill:#263238" />
    <path
       id="path4930"
       d="m 198.28,456.63 c -3.55,-0.07 -7.08,-0.15 -10.45,-0.24 -12.59,-0.34 -23,-0.86 -24,-1.49 -1,-0.63 -1.4,-10 -1.59,-21.54 v -0.87 h 0.05 c 5.89,4.12 26.58,17.89 35.99,24.14 z"
       inkscape:connector-curvature="0"
       style="fill:#263238" />
    <path
       id="path4932"
       d="m 207.72,432.72 h -47.89 c 0,0 9.62,-111.85 9.25,-113.8 -0.48,-2.5 -3.31,-13.82 -7.08,-28.61 -1.18,-4.63 -2.45,-9.59 -3.78,-14.74 -3.57,-13.91 -7.51,-29.12 -10.94,-42.35 C 142.13,213.4 138.11,198 138.11,198 h 40.58 c 0,0 4.73,15 10.7,34.5 9.72,31.7 22.71,75.33 24,85.94 2.07,17.13 -5.67,114.28 -5.67,114.28 z"
       inkscape:connector-curvature="0"
       style="fill:#37474f" />
    <path
       id="path4934"
       d="m 205.6,424.55 c -7.32,-0.15 -5.21,-0.21 -12.53,-0.28 -3.58,0 -27.1,-0.24 -30.44,0.32 a 0.08,0.08 0 0 0 0,0.15 c 3.34,0.55 26.86,0.34 30.44,0.31 7.32,-0.08 5.22,-0.14 12.53,-0.29 a 0.11,0.11 0 0 0 0,-0.21 z M 178.08,312.09 c -1.57,-6.92 -3.92,-13.7 -6,-20.5 q -6.23,-20.7 -12.53,-41.39 -3.15,-10.35 -6.33,-20.68 -1.6,-5.22 -3.23,-10.43 c -1.06,-3.4 -2.28,-6.77 -3.24,-10.2 -0.39,-1.39 -0.6,-0.62 -0.1,1.15 1,3.57 2,7.14 3.05,10.71 q 3.09,10.58 6.23,21.15 6.22,21 12.57,42 3.17,10.55 6.34,21.07 a 85.6,85.6 0 0 1 2.59,10.2 46.8,46.8 0 0 1 0.43,10.9 c -0.46,7.33 -1.3,14.65 -2,21.95 -0.7,7.3 -1.35,14.65 -2,22 l -4,43.73 q -0.25,2.78 -0.47,5.55 c 0,0.62 0.89,0.57 1,0 1.58,-14.42 2.78,-28.88 4.13,-43.32 1.35,-14.44 2.69,-28.73 4,-43.09 0.34,-3.61 0.72,-7.22 0.72,-10.85 a 44.59,44.59 0 0 0 -1.16,-9.95 z"
       inkscape:connector-curvature="0"
       style="fill:#263238" />
    <path
       id="path4936"
       d="M 174.08,198 C 171.27,219.8 165.91,260.67 162,290.32 152.84,254.4 138.11,198 138.11,198 Z"
       inkscape:connector-curvature="0"
       style="fill:#263238" />
    <path
       id="path4938"
       d="m 183.6,457.29 c -2.33,0.76 -68.82,0.16 -71.34,-1.48 -1,-0.6 -1.44,-10.29 -1.68,-22 v -0.37 c -0.06,-2.42 -0.1,-4.91 -0.11,-7.43 v -1 c -0.16,-16.93 1.06,-34.49 1.06,-34.49 l 43.46,0.27 -1.2,34.17 -0.05,1.36 -0.24,7.07 v 0.73 c 0,0 25.34,11.61 27.92,13.7 2.58,2.09 4.51,8.72 2.18,9.47 z"
       inkscape:connector-curvature="0"
       style="fill:#ffc4c0" />
    <path
       id="path4940"
       d="m 183.6,457.29 c -2.33,0.76 -68.82,0.16 -71.34,-1.48 -1,-0.6 -1.44,-10.29 -1.68,-22 v -0.37 c -0.06,-2.42 -0.1,-4.91 -0.11,-7.43 v -1 l 43.32,-0.05 -0.05,1.36 -0.24,7.07 v 0.73 c 0,0 25.34,11.61 27.92,13.7 2.58,2.09 4.51,8.72 2.18,9.47 z"
       inkscape:connector-curvature="0"
       style="fill:#ebebeb" />
    <path
       style="fill:#ffb400;fill-opacity:1"
       id="path4942"
       d="m 183.6,457.29 c -2.33,0.76 -68.82,0.16 -71.34,-1.48 -1,-0.6 -1.44,-10.29 -1.68,-22 v -0.37 l 42.9,-0.09 v 0.73 c 0,0 25.34,11.61 27.92,13.7 2.58,2.09 4.53,8.76 2.2,9.51 z"
       inkscape:connector-curvature="0" />
    <path
       id="path4944"
       d="m 182.87,454.7 c -11.2,-0.37 -56.44,-0.84 -67.54,-0.36 -0.09,0 -0.1,0.07 0,0.07 11.09,0.62 56.33,0.72 67.54,0.48 0.24,-0.01 0.24,-0.18 0,-0.19 z m -24.62,-21.2 c -4.4,-0.87 -9.8,-0.24 -13.2,2.87 -0.13,0.12 0,0.31 0.18,0.27 a 61.88,61.88 0 0 1 13,-2.59 0.28,0.28 0 0 0 0.02,-0.55 z m 3.17,1.94 c -4.4,-0.86 -9.81,-0.23 -13.2,2.88 -0.14,0.12 0,0.31 0.18,0.26 a 62.51,62.51 0 0 1 13,-2.58 0.28017851,0.28017851 0 0 0 0.02,-0.56 z m 3.17,1.95 c -4.41,-0.86 -9.81,-0.23 -13.21,2.88 -0.13,0.12 0,0.3 0.19,0.26 a 61.65,61.65 0 0 1 13,-2.58 0.28017851,0.28017851 0 0 0 0.02,-0.56 z"
       inkscape:connector-curvature="0"
       style="fill:#263238" />
    <path
       id="path4946"
       d="m 177.38,198 c 0,0 -0.93,19.42 -5.37,34.8 -0.36,1.27 -0.75,2.52 -1.16,3.72 a 72.05,72.05 0 0 0 -11.7,6 c 0,0 -0.46,15.62 -0.93,33 -0.51,19.48 -1.05,41.21 -0.93,45.81 0.41,17.24 -2.13,112 -2.13,112 l -47.88,0.2 c 0,0 8.63,-105.86 8.57,-112.18 -0.09,-10.15 2.31,-55 4.16,-87.73 1.14,-20.16 2.07,-35.7 2.07,-35.7 z"
       inkscape:connector-curvature="0"
       style="fill:#37474f" />
    <path
       id="path4948"
       d="m 153.51,424.91 c -7.31,-0.12 -5.21,-0.18 -12.52,-0.22 -3.58,0 -27.11,-0.12 -30.45,0.45 -0.07,0 -0.07,0.14 0,0.15 3.35,0.54 26.87,0.23 30.45,0.18 7.31,-0.11 5.21,-0.16 12.52,-0.34 a 0.11,0.11 0 0 0 0,-0.22 z M 126.1,205 c -0.87,26.71 -1.8,53.43 -3,80.12 -1.2,26.69 -2.8,53.58 -5,80.3 -1.25,14.93 -2.42,35.94 -4,50.83 0,0.1 0.14,0.14 0.16,0 3.48,-26.5 5.41,-59.26 7.12,-85.93 1.71,-26.67 2.86,-53.36 3.77,-80.06 0.51,-15.1 0.9,-30.21 1.35,-45.32 -0.06,-0.22 -0.39,-0.2 -0.4,0.06 z m 46.74,30.37 a 88.73,88.73 0 0 0 -13.69,7.17 0.16,0.16 0 0 0 0.15,0.28 c 4.61,-2.25 9.33,-4.41 13.82,-6.9 a 0.31,0.31 0 0 0 -0.28,-0.55 z"
       inkscape:connector-curvature="0"
       style="fill:#263238" />
    <path
       id="path4950"
       d="m 173.1,218.89 c -0.31,1.7 -0.73,3.39 -1.09,5.08 -0.36,1.69 -0.6,3.21 -1,4.77 a 8.14,8.14 0 0 1 -2.22,4 c -0.63,0.58 -1.31,1.09 -2,1.62 -0.35,0.28 -0.74,0.56 -1.11,0.85 0,-0.23 0.09,-0.46 0.13,-0.69 l 0.33,-1.93 c 0.24,-1.44 0.47,-2.87 0.69,-4.31 0.43,-2.82 0.82,-5.68 1.41,-8.47 0,-0.12 -0.15,-0.16 -0.17,0 -0.71,2.77 -1.48,5.52 -2.1,8.31 -0.3,1.37 -1.37,8.13 -1.41,8.61 -0.04,0.48 -0.09,1 -0.11,1.49 a 5.53,5.53 0 0 0 0,1.52 c 0,0.12 0.18,0.1 0.23,0 a 6.56,6.56 0 0 0 0.43,-1.47 c 0.12,-0.48 0.23,-1 0.31,-1.46 0,-0.18 0.06,-0.36 0.09,-0.54 0.66,-0.41 1.28,-0.94 1.9,-1.39 0.62,-0.45 1.36,-1 2,-1.5 a 7.57,7.57 0 0 0 2.43,-3.79 27.69,27.69 0 0 0 0.8,-4.86 c 0.21,-1.93 0.37,-3.86 0.64,-5.77 0.01,-0.14 -0.16,-0.18 -0.18,-0.07 z"
       inkscape:connector-curvature="0"
       style="fill:#263238" />
    <path
       id="path4952"
       d="m 160.76,147.23 c 2.66,7.41 12,24 26.35,37.08 5.55,5.05 46.84,1.73 50.93,0.14 2.86,-1.12 8.2,-21.93 5.19,-23.81 -5.64,-3.53 -42.55,4.61 -44.12,3.78 -2.4,-1.28 -18.3,-11.93 -28.53,-22 -7.47,-7.42 -14.22,-7.5 -9.82,4.81 z"
       inkscape:connector-curvature="0"
       style="fill:#ffc4c0" />
    <path
       id="path4954"
       d="m 171.38,169.11 23.42,-9.3 c 0,0 -21,-18.07 -28.7,-21.64 -8.65,-4 -8.81,1.28 -5.77,9.81 3.04,8.53 11.05,21.13 11.05,21.13 z"
       inkscape:connector-curvature="0"
       style="fill:#9fa1e4" />
    <path
       style="opacity:1;fill:#ffb400;fill-opacity:1"
       id="path4956"
       d="m 171.38,169.11 23.42,-9.3 c 0,0 -21,-18.07 -28.7,-21.64 -8.65,-4 -8.81,1.28 -5.77,9.81 3.04,8.53 11.05,21.13 11.05,21.13 z"
       inkscape:connector-curvature="0" />
    <path
       id="path4958"
       d="m 189.85,157 c -0.86,0.19 -8.2,3 -9.79,3.62 -1.59,0.62 -8.08,3.19 -9.66,4 a 0.06,0.06 0 0 0 0,0.12 c 1.7,-0.49 8.26,-3 9.88,-3.66 1.62,-0.66 8.84,-3.54 9.59,-4 C 190,157 189.91,157 189.85,157 Z"
       inkscape:connector-curvature="0"
       style="fill:#263238" />
    <path
       id="path4960"
       d="m 180.41,165.52 -9,3.59 c 0,0 -8,-12.59 -11,-21.12 -2.22,-6.24 -2.73,-10.76 0.53,-11.16 z"
       inkscape:connector-curvature="0"
       style="fill:#263238" />
    <path
       id="path4962"
       d="m 116.73,219.14 c 0.15,0.17 66.39,0.6 67,-0.07 0.85,-1 -13.86,-72.77 -20.63,-81.66 -1.44,-1.9 -10.58,-4.49 -15.88,-0.17 -11.26,9.17 -21,40.65 -23.3,50.15 -3.76,15.61 -7.74,31.13 -7.19,31.75 z"
       inkscape:connector-curvature="0"
       style="fill:#9fa1e4" />
    <path
       style="opacity:1;fill:#ffb400;fill-opacity:1"
       id="path4964"
       d="m 163.47,138 h -17.1 c 0.28,-0.26 0.56,-0.5 0.84,-0.73 a 6.55,6.55 0 0 1 0.53,-0.39 h 14.73 a 2.91,2.91 0 0 1 0.62,0.56 5.43,5.43 0 0 1 0.38,0.56 z m 1.6,3.19 h -21.65 c 0.31,-0.39 0.62,-0.77 0.94,-1.13 h 20.22 c 0.16,0.35 0.32,0.73 0.49,1.13 z m 1.24,3.22 H 141.1 c 0.26,-0.39 0.51,-0.76 0.77,-1.13 h 24 z m 1.09,3.21 h -28.27 c 0.22,-0.38 0.44,-0.76 0.67,-1.13 H 167 c 0.16,0.37 0.28,0.75 0.4,1.13 z m 1.02,3.22 h -31 c 0.2,-0.38 0.39,-0.76 0.6,-1.13 h 30.1 c 0.06,0.37 0.18,0.75 0.3,1.13 z m 0.95,3.22 h -33.61 c 0.18,-0.38 0.36,-0.76 0.55,-1.13 H 169 Z m 0.91,3.21 h -36 l 0.51,-1.13 H 170 c 0.07,0.37 0.17,0.75 0.28,1.13 z m 0.87,3.22 h -38.26 l 0.48,-1.13 h 37.48 z m 0.85,3.22 h -40.41 c 0.14,-0.38 0.29,-0.75 0.45,-1.13 h 39.67 c 0.09,0.42 0.19,0.75 0.29,1.13 z m 0.82,3.21 h -42.47 c 0.14,-0.38 0.28,-0.75 0.43,-1.13 h 41.76 c 0.09,0.38 0.19,0.75 0.28,1.13 z m 0.81,3.22 h -44.45 c 0.13,-0.38 0.27,-0.75 0.41,-1.13 h 43.76 c 0.09,0.38 0.18,0.75 0.28,1.13 z m 0.78,3.21 h -46.34 c 0.12,-0.37 0.25,-0.75 0.39,-1.12 h 45.68 z m 0.77,3.22 H 127 l 0.36,-1.13 h 47.54 z m 0.75,3.22 H 126 c 0.11,-0.37 0.22,-0.75 0.34,-1.13 h 49.33 c 0.09,0.34 0.18,0.76 0.26,1.13 z m 0.75,3.21 h -51.61 l 0.32,-1.12 h 51 c 0.11,0.38 0.2,0.75 0.29,1.12 z m 0.72,3.22 h -53.2 c 0.09,-0.35 0.19,-0.73 0.29,-1.13 h 52.66 c 0.08,0.38 0.17,0.75 0.25,1.13 z m 0.72,3.22 h -54.7 l 0.27,-1.13 h 54.18 c 0.13,0.38 0.13,0.76 0.25,1.13 z m 0.7,3.21 h -56.18 l 0.27,-1.12 h 55.67 z m 0.68,3.22 h -57.64 l 0.27,-1.13 h 57.13 c 0.09,0.38 0.17,0.75 0.24,1.13 z m 0.68,3.22 h -59.1 l 0.27,-1.13 H 180 c 0,0.38 0.11,0.76 0.18,1.13 z m 0.66,3.21 H 120.3 l 0.27,-1.13 h 60 c 0.12,0.38 0.2,0.76 0.27,1.13 z m 0.65,3.22 h -62 c 0.1,-0.37 0.19,-0.75 0.28,-1.13 h 61.47 c 0.1,0.38 0.18,0.76 0.25,1.13 z m 0.63,3.22 h -63.37 c 0.09,-0.37 0.17,-0.74 0.27,-1.13 h 62.88 c 0.1,0.39 0.15,0.76 0.22,1.13 z m 0.6,3.26 H 118 c 0.08,-0.37 0.17,-0.74 0.26,-1.13 h 64.25 c 0.07,0.34 0.14,0.71 0.21,1.13 z m 0.56,3.17 h -66 c 0.07,-0.35 0.15,-0.73 0.25,-1.13 h 65.55 c 0.08,0.4 0.14,0.77 0.2,1.13 z m 0.46,3.22 h -67 c 0,-0.3 0.09,-0.68 0.17,-1.13 h 66.69 c 0.07,0.46 0.11,0.84 0.14,1.13 z"
       inkscape:connector-curvature="0" />
    <path
       id="path4966"
       d="m 160.2,147 c -2.28,0.34 -9,-3.83 -11.51,-8.33 -0.17,-0.31 1,-12.76 0.94,-15.25 0,-0.51 15.66,3.61 15.66,3.61 a 39.74,39.74 0 0 0 -1.39,9.58 5.48,5.48 0 0 0 0.12,1 v 0.17 c 0.36,2 -0.48,8.76 -3.82,9.22 z"
       inkscape:connector-curvature="0"
       style="fill:#ffc4c0" />
    <path
       id="path4968"
       d="m 150.64,123.53 c 0.63,3.77 3.16,14.32 11.8,14.42 a 10,10 0 0 0 1.6,-0.11 v -0.17 a 6.5,6.5 0 0 1 -0.11,-1 39.74,39.74 0 0 1 1.39,-9.58 c 0,0 -11.21,-2.96 -14.68,-3.56 z"
       inkscape:connector-curvature="0"
       style="fill:#263238" />
    <path
       id="path4970"
       d="m 151.15,102.42 c -2.8,5.06 -3.25,21.32 -0.13,25.62 4.51,6.24 13.56,8.66 19.28,2.86 5.54,-5.63 5.75,-26.83 2.12,-30.91 -5.35,-5.99 -17.13,-5.06 -21.27,2.43 z"
       inkscape:connector-curvature="0"
       style="fill:#ffc4c0" />
    <path
       id="path4972"
       d="m 164.42,115.35 c 0,0 -0.08,0.05 -0.08,0.1 0,1.09 -0.19,2.35 -1.19,2.68 v 0.06 c 1.22,-0.13 1.45,-1.8 1.27,-2.84 z"
       inkscape:connector-curvature="0"
       style="fill:#263238" />
    <path
       id="path4974"
       d="m 163.48,114.18 c -1.75,-0.19 -2,3.33 -0.38,3.51 1.62,0.18 1.9,-3.35 0.38,-3.51 z m 6.97,1.53 c 0,0 0.08,0.05 0.08,0.1 -0.12,1.09 -0.06,2.36 0.9,2.79 v 0.06 c -1.21,-0.26 -1.26,-1.94 -0.98,-2.95 z"
       inkscape:connector-curvature="0"
       style="fill:#263238" />
    <path
       id="path4976"
       d="m 171.51,114.64 c 1.76,0 1.65,3.52 0,3.53 -1.65,0.01 -1.51,-3.53 0,-3.53 z M 162,113 a 12.12,12.12 0 0 0 1.4,-0.38 2.37,2.37 0 0 0 1.35,-0.66 0.74,0.74 0 0 0 -0.06,-0.91 1.84,1.84 0 0 0 -1.85,-0.33 2.75,2.75 0 0 0 -1.65,1.07 0.8,0.8 0 0 0 0.81,1.21 z m 11,-0.82 a 13,13 0 0 1 -1.37,-0.46 2.42,2.42 0 0 1 -1.32,-0.74 0.77,0.77 0 0 1 0.11,-0.91 1.87,1.87 0 0 1 1.87,-0.22 2.77,2.77 0 0 1 1.58,1.16 0.79,0.79 0 0 1 -0.87,1.17 z m -10.6,12.96 c 0.24,0.28 0.48,0.65 0.87,0.71 a 2.91,2.91 0 0 0 1.2,-0.19 v 0.06 a 1.46,1.46 0 0 1 -1.43,0.49 1.17,1.17 0 0 1 -0.79,-1 c 0.03,-0.09 0.11,-0.11 0.15,-0.07 z"
       inkscape:connector-curvature="0"
       style="fill:#263238" />
    <path
       id="path4978"
       d="m 163.78,122 a 3.74,3.74 0 0 0 2.37,1.84 4.89,4.89 0 0 0 1.33,0.15 1.11,1.11 0 0 0 0.26,0 h 0.24 a 0.28,0.28 0 0 0 0.24,-0.23 v -0.22 c 0.08,-0.84 0.09,-2.12 0.09,-2.12 0.3,0.17 1.82,1 1.82,0.55 a 55.47,55.47 0 0 0 -0.63,-11.36 c 0,-0.13 -0.21,-0.11 -0.2,0 -0.18,3.51 0.25,7 0.13,10.56 a 6.37,6.37 0 0 0 -1.72,-0.66 c -0.12,0 0,2.48 0,2.85 a 5.17,5.17 0 0 1 -3.77,-1.47 c -0.13,-0.1 -0.22,-0.03 -0.16,0.11 z"
       inkscape:connector-curvature="0"
       style="fill:#263238" />
    <path
       id="path4980"
       d="m 167,123.48 a 4.38,4.38 0 0 1 -1.86,1.24 1.93,1.93 0 0 1 -1.21,0 c -0.86,-0.29 -0.82,-1.09 -0.61,-1.76 a 4.73,4.73 0 0 1 0.46,-1 5.73,5.73 0 0 0 3.22,1.52 z"
       inkscape:connector-curvature="0"
       style="fill:#263238" />
    <path
       id="path4982"
       d="m 165.15,124.72 a 1.93,1.93 0 0 1 -1.21,0 c -0.86,-0.29 -0.82,-1.09 -0.61,-1.76 a 2,2 0 0 1 1.82,1.76 z"
       inkscape:connector-curvature="0"
       style="fill:#ff9cbd" />
    <path
       id="path4984"
       d="m 149.24,117.24 c 3,-0.39 5.88,-9.77 5.88,-9.77 0,0 -0.64,4.07 0.14,4.08 0.78,0.01 4.74,-5 5.68,-9 a 31.25,31.25 0 0 0 6.73,4.62 c 3.46,1.63 7.51,2 7.61,1.37 0.27,-1.84 -0.68,-6.88 -2.93,-9 a 13.11,13.11 0 0 0 -12.66,-3.51 c -6.26,1.39 -8.38,5 -9.7,7.78 -1.32,2.78 -1.85,13.57 -0.75,13.43 z"
       inkscape:connector-curvature="0"
       style="fill:#263238" />
    <path
       id="path4986"
       d="M 161.44,121.17 A 4.84,4.84 0 1 1 167,116 a 4.85,4.85 0 0 1 -5.59,5.21 z m 1.45,-8.92 a 4.57,4.57 0 0 0 -1,0 4.2,4.2 0 1 0 1,0 z m 9.65,9.35 c -1.83,-0.3 -3.19,-2.44 -3.08,-5 a 5.81,5.81 0 0 1 1.18,-3.34 3,3 0 0 1 5.15,0.23 5.74,5.74 0 0 1 0.87,3.42 c -0.11,2.67 -1.82,4.77 -3.81,4.68 a 1.55,1.55 0 0 1 -0.31,0.01 z m 1,-9 h -0.24 a 2.55,2.55 0 0 0 -2.11,1.1 5.15,5.15 0 0 0 -1,3 c -0.1,2.31 1.14,4.24 2.77,4.31 1.63,0.07 3,-1.74 3.14,-4 a 5.08,5.08 0 0 0 -0.77,-3 2.67,2.67 0 0 0 -1.84,-1.38 z"
       inkscape:connector-curvature="0"
       style="fill:#9fa1e4" />
    <path
       id="path4988"
       d="m 166.85,116.52 -0.4,-0.52 c 0.76,-0.58 2.5,-1.33 3.62,0 l -0.49,0.42 c -1.01,-1.2 -2.66,0.04 -2.73,0.1 z m -20.65,0.48 -0.56,-0.32 c 0.15,-0.26 1.51,-2.56 3,-2.73 1.49,-0.17 9,0.81 9.41,0.87 l -0.09,0.64 a 82.39,82.39 0 0 0 -9.24,-0.87 c -1,0.14 -2.16,1.81 -2.52,2.41 z"
       inkscape:connector-curvature="0"
       style="fill:#9fa1e4" />
    <path
       id="path4990"
       d="m 151.8,115.88 c 0,0 -2.58,-5.76 -5.13,-4.93 -2.55,0.83 -1.28,8.7 1.23,10.22 a 2.79,2.79 0 0 0 4,-0.77 z"
       inkscape:connector-curvature="0"
       style="fill:#ffc4c0" />
    <path
       id="path4992"
       d="m 147.09,113.19 v 0.07 c 1.75,1.13 2.41,3.09 2.77,5 a 1.55,1.55 0 0 0 -2.2,-0.85 0.07,0.07 0 0 0 0,0.12 1.71,1.71 0 0 1 1.75,0.94 8.22,8.22 0 0 1 0.61,1.68 c 0.06,0.19 0.38,0.15 0.35,0 0.5,-2.47 -0.73,-6.22 -3.28,-6.96 z"
       inkscape:connector-curvature="0"
       style="fill:#263238" />
    <path
       style="fill:#ffb400;fill-opacity:1"
       id="path4994"
       d="m 167.42,96.26 a 22.89,22.89 0 0 0 -6.06,-2.82 c -2.41,-0.67 -10.24,-1.21 -12.32,0.07 -2.08,1.28 -3.64,8.5 -3.85,9.56 -0.21,1.06 -0.67,7.58 1.43,9.48 2.1,1.9 3.94,-9 8.16,-12.12 4.22,-3.12 12.64,-4.17 12.64,-4.17 z"
       inkscape:connector-curvature="0" />
    <path
       id="path4996"
       d="m 167.42,96.26 c 0,0 -8.42,1.08 -12.64,4.17 -4.22,3.09 -6.05,14 -8.16,12.12 -0.93,-0.84 -1.28,-1.93 -1.45,-3.7 1,-3.13 3,-7.91 6.15,-11 3,-2.86 7.52,-3.85 12.19,-3.7 a 26.36,26.36 0 0 1 3.91,2.11 z"
       inkscape:connector-curvature="0"
       style="opacity:0.1" />
    <path
       style="fill:#ffb400;fill-opacity:1"
       id="path4998"
       d="m 146.31,119.15 c 0.64,-2.89 4.75,-10.27 8.52,-14.3 3.77,-4.03 13.31,-5.29 14.58,-5 3.08,0.63 4,1.73 4.53,1.52 0.53,-0.21 -2.33,-3 -3.12,-3.66 -0.79,-0.66 -3,-2.23 -4.33,-2.4 -1.33,-0.17 -9.8,-0.56 -13.35,2.55 -3.55,3.11 -9.29,12.44 -8.88,15.1 0.1,0.64 0.85,1.15 1,2.06 0.18,1.19 0.22,2.54 0.45,3.38 0.16,0.66 0.54,1 0.6,0.75 z"
       inkscape:connector-curvature="0" />
    <path
       id="path5000"
       d="m 155.84,103 a 15.13,15.13 0 0 1 -1.8,-1.78 10.52,10.52 0 0 1 -1.46,-2.1 h -0.09 a 8.22,8.22 0 0 0 1.27,2.3 7,7 0 0 0 2,1.68 0.08,0.08 0 0 0 0.08,-0.1 z m -9.13,13.23 c -0.05,-0.23 -0.16,-0.43 -0.23,-0.65 a 3.34,3.34 0 0 1 -0.17,-0.76 6.59,6.59 0 0 0 -0.13,-1.47 5.12,5.12 0 0 0 -0.54,-1.07 2,2 0 0 1 -0.4,-1.27 c 0,-0.06 -0.09,-0.08 -0.1,0 a 5,5 0 0 0 0.65,2.41 9.21,9.21 0 0 1 0.21,1.58 2.29,2.29 0 0 0 0.59,1.33 0.09,0.09 0 0 0 0.12,-0.1 z m 1.47,-3.01 a 7.45,7.45 0 0 1 -1.15,-2.3 c -0.13,-0.39 -0.22,-0.8 -0.34,-1.2 -0.12,-0.4 -0.35,-0.93 -0.47,-1.41 h -0.09 c 0.12,0.5 0.16,1 0.27,1.52 a 10.93,10.93 0 0 0 0.38,1.27 6.71,6.71 0 0 0 0.54,1.15 3.23,3.23 0 0 0 0.82,1 z m 1.48,-2.7 a 8.28,8.28 0 0 1 -1.33,-2 c -0.33,-0.72 -0.61,-1.46 -0.89,-2.2 0,-0.05 -0.11,0 -0.1,0 a 10.23,10.23 0 0 0 0.69,2.37 5.37,5.37 0 0 0 0.61,1 5.6,5.6 0 0 0 0.94,0.88 c 0,0 0.12,0 0.08,-0.05 z m 1.55,-2.52 a 3.08,3.08 0 0 1 -0.66,-0.9 c -0.2,-0.36 -0.4,-0.73 -0.58,-1.11 -0.18,-0.38 -0.37,-0.71 -0.54,-1.07 a 2.93,2.93 0 0 1 -0.37,-1.15 c 0,0 -0.09,-0.06 -0.1,0 a 3,3 0 0 0 0.17,1.19 7.31,7.31 0 0 0 0.5,1.24 9.8,9.8 0 0 0 0.66,1.13 1.88,1.88 0 0 0 0.85,0.78 c 0.07,-0.01 0.14,-0.11 0.07,-0.11 z m 1.34,-3.39 c -0.23,-0.3 -0.46,-0.61 -0.66,-0.93 -0.2,-0.32 -0.4,-0.65 -0.59,-1 -0.19,-0.35 -0.39,-0.69 -0.57,-1 0,-0.06 -0.1,0 -0.09,0 a 7.66,7.66 0 0 0 0.39,1.14 8.83,8.83 0 0 0 0.56,1 9.11,9.11 0 0 0 0.68,1 3.27,3.27 0 0 0 0.85,0.81 c 0.06,0 0.12,0 0.1,-0.09 a 5.83,5.83 0 0 0 -0.67,-0.93 z m 5.77,-2.99 a 12.73,12.73 0 0 0 -0.73,-1.17 13.88,13.88 0 0 0 -0.9,-1.1 13.29,13.29 0 0 0 -2,-1.86 c -0.05,0 -0.12,0 -0.08,0.07 1.21,1.38 2.48,2.72 3.67,4.11 z m 2.13,-2.24 a 5.61,5.61 0 0 0 -0.85,-1.09 12.74,12.74 0 0 0 -2.3,-1.76 c -0.05,0 -0.11,0 -0.06,0.08 0.68,0.61 1.38,1.22 2,1.87 a 12.57,12.57 0 0 1 0.91,1 c 0.29,0.35 0.49,0.76 0.75,1.13 h 0.07 a 3.4,3.4 0 0 0 -0.52,-1.23 z m 2.6,-0.79 A 6.32,6.32 0 0 0 162.28,97.52 7.57,7.57 0 0 0 160.33,96 c -0.05,0 -0.1,0 -0.06,0.08 a 13.61,13.61 0 0 1 1.8,1.76 c 0.28,0.32 0.53,0.65 0.8,1 0.27,0.35 0.46,0.72 0.75,1 a 6.82,6.82 0 0 0 -0.57,-1.25 z m 1.95,-1.2 a 22.4,22.4 0 0 0 -0.84,-0.85 3.86,3.86 0 0 0 -0.93,-0.72 c -0.05,0 -0.09,0 -0.05,0.08 0.53,0.57 1,1.14 1.56,1.71 a 11,11 0 0 1 1.13,1.81 h 0.06 A 3.81,3.81 0 0 0 165,97.39 Z m 2.28,-0.15 a 6.09,6.09 0 0 0 -1.77,-1.5 c 0,0 -0.1,0.05 0,0.08 a 7.73,7.73 0 0 1 1.58,1.6 10.1,10.1 0 0 1 1.14,1.93 h 0.07 a 5,5 0 0 0 -1.02,-2.11 z M 170,99 a 4.68,4.68 0 0 0 -0.18,-0.48 5.7,5.7 0 0 0 -0.54,-0.89 11.11,11.11 0 0 0 -1.47,-1.52 c 0,0 -0.11,0 -0.06,0.08 a 8.34,8.34 0 0 1 1.36,1.54 6.71,6.71 0 0 1 0.51,0.86 c 0.07,0.15 0.14,0.3 0.2,0.45 a 3,3 0 0 0 0.18,0.45 h 0.09 A 1.51,1.51 0 0 0 170,99 Z m 1.69,0.38 a 7.74,7.74 0 0 0 -0.43,-0.73 7.1,7.1 0 0 0 -0.53,-0.67 c -0.19,-0.22 -0.39,-0.43 -0.58,-0.66 0,0 -0.12,0 -0.07,0.07 a 5.15,5.15 0 0 1 0.53,0.7 l 0.46,0.69 0.45,0.69 c 0.16,0.24 0.28,0.5 0.46,0.72 h 0.07 a 3.85,3.85 0 0 0 -0.36,-0.81 z"
       inkscape:connector-curvature="0"
       style="fill:#263238" />
    <path
       id="path5002"
       d="m 140.78,144.73 c -8.88,15 -24.47,52.12 -18.46,60 8.08,10.53 34,23.6 42.36,24.88 3.61,0.56 12.53,-26.73 9,-28.34 -4.26,-1.93 -27.93,-12.51 -28,-13.93 -0.07,-1.42 3.23,-18.66 4,-33.41 0.79,-17.17 -4.02,-17.42 -8.9,-9.2 z"
       inkscape:connector-curvature="0"
       style="fill:#ffc4c0" />
    <path
       id="path5004"
       d="m 167.76,201.48 c 0,0 11,-1.83 18.17,-2.69 4,-0.48 11,-0.69 14.13,0.31 4.67,1.49 23.24,10.73 21.09,15.28 -1.94,4.12 -16.88,-5.84 -16.88,-5.84 0,0 16,8.71 12.72,13.24 -3.28,4.53 -18.63,-9 -18.63,-9 0,0 16.2,9.33 12.12,13.47 -3.09,3.13 -17.72,-8.31 -17.72,-8.31 0,0 13.87,8.11 10.84,11.47 -3.36,3.71 -17.52,-6 -17.52,-6 -9.16,7.23 -16.48,6.93 -21.66,6.09 -1.25,-0.18 3.34,-28.02 3.34,-28.02 z"
       inkscape:connector-curvature="0"
       style="fill:#ffc4c0" />
    <path
       id="path5006"
       d="m 198.94,205.17 c 1.91,1 3.86,1.91 5.68,3 1.82,1.09 3.6,2.31 5.31,3.6 a 36.74,36.74 0 0 1 6.17,5.64 c -3.53,-3.51 -10,-7.63 -11.81,-8.75 -1.81,-1.12 -3.58,-2.33 -5.39,-3.46 -0.05,0.01 -0.01,-0.06 0.04,-0.03 z m -4.17,6.5 c 2.39,1.33 4.81,2.56 7.14,4 2.33,1.44 4.4,3 6.61,4.56 0.17,0.12 0,0.17 -0.13,0.06 -2.27,-1.49 -4.49,-2.7 -6.79,-4.16 -2.3,-1.46 -4.53,-3 -6.87,-4.4 -0.04,-0.03 0,-0.08 0.04,-0.06 z m -4.59,4.94 a 61.2,61.2 0 0 1 10.46,6.93 c 0.16,0.13 0,0.18 -0.18,0.06 -3.43,-2.37 -6.11,-4.26 -10.34,-6.86 -0.07,-0.04 -0.02,-0.17 0.06,-0.13 z"
       inkscape:connector-curvature="0"
       style="fill:#263238" />
    <path
       id="path5008"
       d="m 148.45,171.93 h -25.2 c 0,0 12.82,-24.58 18.63,-30.74 6.53,-6.94 8.65,-2.08 9,7 0.35,9.08 -2.43,23.74 -2.43,23.74 z"
       inkscape:connector-curvature="0"
       style="fill:#9fa1e4" />
    <path
       style="opacity:1;fill:#ffb400;fill-opacity:1"
       id="path5010"
       d="m 148.45,171.93 h -25.2 c 0,0 12.82,-24.58 18.63,-30.74 6.53,-6.94 8.65,-2.08 9,7 0.35,9.08 -2.43,23.74 -2.43,23.74 z"
       inkscape:connector-curvature="0" />
    <path
       id="path5012"
       d="m 147.82,167.66 c -0.88,-0.13 -8.73,-0.18 -10.44,-0.15 -1.71,0.03 -8.69,0.06 -10.45,0.24 a 0.06,0.06 0 0 0 0,0.12 c 1.76,0.16 8.8,0.14 10.54,0.15 1.74,0.01 9.51,-0.11 10.37,-0.25 0.06,-0.01 0.04,-0.1 -0.02,-0.11 z"
       inkscape:connector-curvature="0"
       style="fill:#263238" />
    <path
       id="path5014"
       d="m 249.16,161 c 1,4.26 4.47,10.08 4.14,13.3 a 3.71,3.71 0 0 1 -2.88,3.38 c 0,0 2.78,2.27 2,5.15 -0.4,1.48 -3.13,2.14 -3.13,2.14 0,0 2.15,1.92 1.3,4.43 -0.69,2 -3.31,2.36 -3.31,2.36 0,0 1.2,2.8 -0.15,4.62 -2.74,3.69 -20.47,-0.32 -21.73,-7.47 -0.59,-3.33 3.69,-2.12 3.69,-2.12 0,0 -5.73,-3.23 -5,-6.91 0.73,-3.68 6.19,-1.76 6.19,-1.76 0,0 -5.52,-3.18 -4.38,-6.92 1.14,-3.74 6.33,-1 6.33,-1 0,0 -3.34,-3.56 -1.8,-6.22 2.53,-4.39 10.13,3.55 14.24,3.51 l 1.76,-6.25 z"
       inkscape:connector-curvature="0"
       style="fill:#ffc4c0" />
    <path
       id="path5016"
       d="m 251.08,167.32 c -0.56,-4.12 2.55,-5.13 3.13,-9.09 0.65,-4.41 -4.73,-4.44 -7.72,2.78 l -1.82,6.47 z"
       inkscape:connector-curvature="0"
       style="fill:#ffc4c0" />
    <path
       id="path5018"
       d="m 246.86,191.91 a 0.05,0.05 0 0 1 0,0.1 31.55,31.55 0 0 1 -18,-5.23 c -0.17,-0.11 -0.05,-0.44 0.16,-0.34 a 64.62,64.62 0 0 0 17.84,5.47 z m 2.5,-6.86 c 0.07,0 0.06,0.13 0,0.13 -6.34,0.07 -13.94,-2.14 -19.3,-6.92 -0.19,-0.16 -0.19,-0.49 0,-0.32 3.83,2.91 13.48,6.31 19.3,7.11 z M 232,169.72 c 5.32,4.39 11.52,6.62 18.21,8 0.08,0 0.05,0.14 0,0.14 -3.46,0.22 -7.63,-1.11 -10.79,-2.42 a 18.23,18.23 0 0 1 -7.54,-5.54 c -0.16,-0.09 -0.04,-0.27 0.12,-0.18 z"
       inkscape:connector-curvature="0"
       style="fill:#263238" />
    <path
       id="path5020"
       d="m 223.77,138.08 45,-0.78 a 16.46,16.46 0 0 1 12.23,5.22 c 6.72,7.14 12.81,18.87 18.61,35.86 l -45,0.78 c -5.8,-17 -11.89,-28.71 -18.61,-35.85 a 16.47,16.47 0 0 0 -12.23,-5.23 z"
       inkscape:connector-curvature="0"
       style="fill:#ebebeb" />
    <path
       id="path5022"
       d="m 256.92,172 c 5.28,-0.2 10.57,-0.27 15.85,-0.4 5.28,-0.13 10.56,-0.17 15.84,-0.16 -5.28,0.2 -10.56,0.27 -15.84,0.41 -5.28,0.14 -10.56,0.15 -15.85,0.15 z m 34.08,0.28 c -0.24,-0.62 -0.49,-1.26 -0.72,-1.92 v -0.12 h 0.12 l 2.17,-0.12 h 0.1 v 0.09 l 0.61,2 v 0.13 h -0.13 c -0.78,-0.02 -1.51,-0.04 -2.15,-0.06 z m 0,0 c 0.75,-0.06 1.46,-0.12 2.17,-0.15 l -0.1,0.12 -0.65,-2 0.12,0.08 c -0.72,0 -1.44,0 -2.17,0.06 l 0.09,-0.12 c 0.14,0.66 0.3,1.32 0.54,2.01 z"
       inkscape:connector-curvature="0"
       style="fill:#a6a6a6" />
    <path
       id="path5024"
       d="m 292.22,171.49 a 8.63,8.63 0 0 1 -0.73,-0.6 h 0.16 a 8.44,8.44 0 0 1 -0.91,1.95 9.11,9.11 0 0 1 0.73,-2 l 0.07,-0.14 0.09,0.11 c 0.21,0.19 0.37,0.42 0.59,0.68 z"
       inkscape:connector-curvature="0"
       style="fill:#9fa1e4" />
    <path
       id="path5026"
       d="m 255.28,167.55 c 5.28,-0.2 10.57,-0.26 15.85,-0.4 5.28,-0.14 10.56,-0.15 15.87,-0.15 -5.28,0.2 -10.56,0.27 -15.84,0.4 -5.28,0.13 -10.59,0.17 -15.88,0.15 z m 34.03,0.32 c -0.24,-0.61 -0.49,-1.25 -0.72,-1.92 v -0.11 h 0.12 l 2.17,-0.12 h 0.1 v 0.1 l 0.61,2 v 0.13 h -0.13 c -0.72,-0.03 -1.46,-0.05 -2.15,-0.08 z m 0,0 2.17,-0.15 -0.1,0.13 -0.65,-2 0.12,0.09 c -0.72,0 -1.44,0 -2.17,0.06 l 0.09,-0.12 c 0.23,0.65 0.35,1.31 0.54,1.99 z"
       inkscape:connector-curvature="0"
       style="fill:#a6a6a6" />
    <path
       id="path5028"
       d="m 290.58,167.08 a 7,7 0 0 1 -0.73,-0.59 h 0.16 a 8.64,8.64 0 0 1 -0.91,1.95 8.94,8.94 0 0 1 0.73,-2 l 0.07,-0.14 0.09,0.11 c 0.21,0.17 0.4,0.42 0.59,0.67 z"
       inkscape:connector-curvature="0"
       style="fill:#9fa1e4" />
    <path
       id="path5030"
       d="m 253.64,163.15 c 5.28,-0.2 10.57,-0.26 15.85,-0.4 5.28,-0.14 10.56,-0.17 15.84,-0.15 -5.28,0.2 -10.56,0.26 -15.84,0.4 -5.28,0.14 -10.56,0.17 -15.85,0.15 z m 34.03,0.32 c -0.24,-0.61 -0.49,-1.26 -0.72,-1.92 v -0.11 H 287 c 0.73,-0.06 1.45,-0.08 2.17,-0.12 h 0.1 v 0.09 l 0.61,2 v 0.13 h -0.13 c -0.66,-0.02 -1.39,-0.05 -2.08,-0.07 z m 0,0 c 0.75,-0.06 1.46,-0.12 2.17,-0.15 l -0.1,0.13 -0.65,-2 0.12,0.09 c -0.72,0 -1.44,0.05 -2.17,0.05 l 0.09,-0.12 c 0.19,0.66 0.35,1.31 0.54,2 z"
       inkscape:connector-curvature="0"
       style="fill:#a6a6a6" />
    <path
       id="path5032"
       d="m 288.94,162.68 a 8.63,8.63 0 0 1 -0.73,-0.6 h 0.16 a 8.71,8.71 0 0 1 -0.91,2 8.94,8.94 0 0 1 0.73,-2 l 0.07,-0.14 0.09,0.11 c 0.21,0.13 0.4,0.38 0.59,0.63 z"
       inkscape:connector-curvature="0"
       style="fill:#9fa1e4" />
    <path
       id="path5034"
       d="m 251.58,158.75 c 5.28,-0.2 10.56,-0.27 15.84,-0.4 5.28,-0.13 10.57,-0.17 15.85,-0.16 -5.28,0.2 -10.56,0.27 -15.84,0.41 -5.28,0.14 -10.56,0.16 -15.85,0.15 z m 34.03,0.32 c -0.24,-0.62 -0.49,-1.26 -0.72,-1.92 v -0.12 H 285 c 0.72,-0.05 1.45,-0.08 2.17,-0.12 h 0.09 V 157 l 0.61,2 v 0.12 h -0.13 c -0.74,-0.01 -1.44,-0.03 -2.13,-0.05 z m 0,0 c 0.75,-0.06 1.46,-0.12 2.16,-0.15 l -0.09,0.12 -0.66,-2 0.13,0.08 c -0.72,0 -1.45,0.06 -2.17,0.06 l 0.08,-0.12 c 0.19,0.66 0.36,1.32 0.55,2.01 z"
       inkscape:connector-curvature="0"
       style="fill:#a6a6a6" />
    <path
       id="path5036"
       d="m 286.88,158.28 a 8.63,8.63 0 0 1 -0.73,-0.6 h 0.16 a 9.36,9.36 0 0 1 -0.91,1.95 9.11,9.11 0 0 1 0.73,-2 l 0.07,-0.14 0.09,0.11 c 0.21,0.18 0.4,0.4 0.59,0.68 z"
       inkscape:connector-curvature="0"
       style="fill:#9fa1e4" />
    <path
       id="path5038"
       d="m 249.28,154.34 c 5.28,-0.2 10.56,-0.26 15.84,-0.4 5.28,-0.14 10.56,-0.16 15.85,-0.15 -5.28,0.2 -10.57,0.27 -15.85,0.4 -5.28,0.13 -10.56,0.17 -15.84,0.15 z m 34.02,0.32 c -0.23,-0.61 -0.49,-1.25 -0.72,-1.92 v -0.11 h 0.13 c 0.72,-0.05 1.44,-0.08 2.16,-0.12 h 0.1 v 0.1 l 0.6,2 v 0.13 h -0.13 c -0.71,-0.03 -1.44,-0.05 -2.14,-0.08 z m 0,0 2.17,-0.15 -0.09,0.13 -0.66,-2 0.12,0.09 c -0.72,0 -1.44,0.05 -2.17,0.06 l 0.09,-0.12 c 0.24,0.65 0.36,1.33 0.54,1.99 z"
       inkscape:connector-curvature="0"
       style="fill:#a6a6a6" />
    <path
       id="path5040"
       d="m 284.57,153.88 q -0.37,-0.28 -0.72,-0.6 h 0.16 a 8.91,8.91 0 0 1 -0.92,1.95 8.94,8.94 0 0 1 0.73,-2 l 0.07,-0.14 0.1,0.11 a 8.61,8.61 0 0 1 0.58,0.68 z"
       inkscape:connector-curvature="0"
       style="fill:#9fa1e4" />
    <path
       id="path5042"
       d="m 246.31,149.71 c 5.28,-0.2 10.56,-0.26 15.85,-0.4 5.29,-0.14 10.56,-0.17 15.84,-0.15 -5.28,0.2 -10.56,0.26 -15.84,0.4 -5.28,0.14 -10.56,0.17 -15.85,0.15 z m 34.03,0.29 c -0.24,-0.61 -0.49,-1.26 -0.72,-1.92 v -0.11 h 0.12 c 0.72,-0.06 1.45,-0.08 2.17,-0.12 h 0.1 v 0.09 l 0.61,2 v 0.13 h -0.13 c -0.73,0.01 -1.49,-0.02 -2.15,-0.07 z m 0,0 c 0.75,-0.06 1.46,-0.12 2.16,-0.15 l -0.09,0.13 -0.65,-2 0.12,0.08 c -0.72,0 -1.45,0.06 -2.17,0.06 L 279.8,148 c 0.2,0.69 0.35,1.34 0.54,2 z"
       inkscape:connector-curvature="0"
       style="fill:#a6a6a6" />
    <path
       id="path5044"
       d="m 281.61,149.24 a 8.63,8.63 0 0 1 -0.73,-0.6 h 0.16 a 8.44,8.44 0 0 1 -0.91,1.95 8.86,8.86 0 0 1 0.73,-2 l 0.07,-0.14 0.09,0.11 a 8.54,8.54 0 0 1 0.59,0.68 z"
       inkscape:connector-curvature="0"
       style="fill:#9fa1e4" />
    <path
       id="path5046"
       d="m 242.81,145.08 c 5.28,-0.2 10.56,-0.27 15.84,-0.41 5.28,-0.14 10.57,-0.16 15.85,-0.15 -5.28,0.2 -10.56,0.27 -15.84,0.4 -5.28,0.13 -10.57,0.17 -15.85,0.16 z m 34.03,0.31 c -0.24,-0.61 -0.49,-1.25 -0.72,-1.91 v -0.12 h 0.12 c 0.72,0 1.45,-0.08 2.17,-0.12 h 0.09 v 0.09 l 0.61,2 v 0.13 H 279 c -0.74,-0.02 -1.47,-0.04 -2.16,-0.07 z m 0,0 c 0.75,0 1.46,-0.11 2.16,-0.14 l -0.09,0.12 -0.66,-2 0.13,0.09 -2.17,0.06 0.08,-0.12 c 0.19,0.65 0.36,1.31 0.55,1.99 z"
       inkscape:connector-curvature="0"
       style="fill:#a6a6a6" />
    <path
       id="path5048"
       d="m 278.1,144.61 q -0.37,-0.29 -0.72,-0.6 h 0.16 a 9.36,9.36 0 0 1 -0.91,2 9.11,9.11 0 0 1 0.73,-2 l 0.07,-0.14 0.09,0.11 a 8.2,8.2 0 0 1 0.58,0.63 z"
       inkscape:connector-curvature="0"
       style="fill:#9fa1e4" />
    <path
       id="path5050"
       d="m 237.38,140.44 c 5.28,-0.2 10.56,-0.26 15.84,-0.4 5.28,-0.14 10.57,-0.17 15.85,-0.15 -5.28,0.2 -10.56,0.26 -15.84,0.4 -5.28,0.14 -10.57,0.17 -15.85,0.15 z m 34.03,0.32 c -0.24,-0.61 -0.49,-1.25 -0.72,-1.92 v -0.11 h 0.12 c 0.72,-0.05 1.45,-0.08 2.17,-0.12 H 273 v 0.09 l 0.61,2 v 0.13 h -0.13 c -0.65,-0.02 -1.38,-0.05 -2.07,-0.07 z m 0,0 c 0.75,-0.06 1.46,-0.12 2.16,-0.15 l -0.09,0.13 -0.66,-2 0.13,0.09 -2.17,0.06 0.08,-0.13 c 0.19,0.66 0.36,1.31 0.55,2 z"
       inkscape:connector-curvature="0"
       style="fill:#a6a6a6" />
    <path
       id="path5052"
       d="m 272.67,140 q -0.37,-0.28 -0.72,-0.6 h 0.16 a 9.68,9.68 0 0 1 -0.91,2 8.94,8.94 0 0 1 0.73,-2 l 0.07,-0.14 0.09,0.11 a 8.07,8.07 0 0 1 0.58,0.63 z"
       inkscape:connector-curvature="0"
       style="fill:#9fa1e4" />
    <path
       id="path5054"
       d="m 224.23,138.08 45,-0.78 c -5.91,0.1 -11.78,3.69 -15.6,9 -9.76,13.57 -18.11,55.72 -18.51,81.58 -0.14,8.83 3.41,24.13 7.18,40.33 5,21.34 10.57,45.52 9.52,61.92 -0.79,12.35 -4.46,27.17 -8.34,42.85 -3.37,13.57 -6.84,27.61 -8.81,41.35 -2.33,16.32 -0.34,35.63 4.08,39.71 a 12.43,12.43 0 0 0 8.87,3.6 l -45,0.79 a 12.44,12.44 0 0 1 -8.86,-3.6 c -4.43,-4.08 -6.42,-23.39 -4.09,-39.72 2,-13.73 5.45,-27.77 8.81,-41.34 3.88,-15.69 7.55,-30.5 8.35,-42.85 1,-16.4 -4.57,-40.59 -9.53,-61.93 -3.77,-16.19 -7.32,-31.5 -7.18,-40.32 0.4,-25.86 8.75,-68 18.51,-81.59 3.82,-5.31 9.69,-8.89 15.6,-9 z"
       inkscape:connector-curvature="0"
       style="fill:#dbdbdb" />
    <path
       id="path5056"
       d="m 271.48,404.31 45,-0.78 c -9.67,0.17 -21,12.83 -33,26.24 -12.24,13.66 -24.8,27.69 -35.83,27.88 l -45,0.79 c 11,-0.2 23.59,-14.22 35.83,-27.89 11.99,-13.4 23.33,-26.07 33,-26.24 z"
       inkscape:connector-curvature="0"
       style="fill:#c7c7c7" />
    <path
       id="path5058"
       d="m 215.3,456 c 5.28,-0.2 10.56,-0.27 15.84,-0.41 5.28,-0.14 10.56,-0.17 15.84,-0.15 -5.28,0.2 -10.56,0.26 -15.84,0.4 -5.28,0.14 -10.56,0.16 -15.84,0.16 z m 33.02,0.34 c 0.26,-0.63 0.51,-1.31 0.8,-2 v -0.05 h 2.6 l -0.09,0.18 -0.94,2 v 0.06 h -0.07 z m 0,0 h 2.32 l -0.09,0.06 0.89,-2 0.11,0.18 h -2.34 l 0.09,-0.05 z"
       inkscape:connector-curvature="0"
       style="fill:#a6a6a6" />
    <path
       id="path5060"
       d="m 250.4,455.47 a 4.37,4.37 0 0 1 -0.32,-0.55 h 0.16 a 14.54,14.54 0 0 1 -1.92,1.84 14,14 0 0 1 1.78,-2 l 0.12,-0.11 v 0.15 a 4,4 0 0 1 0.18,0.67 z"
       inkscape:connector-curvature="0"
       style="fill:#9fa1e4" />
    <path
       id="path5062"
       d="m 220.2,452.31 c 5.28,-0.2 10.56,-0.27 15.84,-0.41 5.28,-0.14 10.56,-0.17 15.85,-0.15 -5.28,0.2 -10.56,0.26 -15.84,0.4 -5.28,0.14 -10.57,0.17 -15.85,0.16 z m 33.03,0.31 c 0.25,-0.63 0.5,-1.31 0.8,-2 v -0.05 h 2.6 l -0.08,0.18 -0.94,2 v 0.06 h -0.06 z m 0,0 h 2.31 l -0.09,0.06 0.89,-2 0.11,0.18 h -2.34 l 0.09,-0.05 z"
       inkscape:connector-curvature="0"
       style="fill:#a6a6a6" />
    <path
       id="path5064"
       d="m 255.3,451.75 a 6.05,6.05 0 0 1 -0.32,-0.55 h 0.17 a 14.54,14.54 0 0 1 -1.92,1.84 13.91,13.91 0 0 1 1.77,-2 l 0.12,-0.11 v 0.15 a 4,4 0 0 1 0.18,0.67 z"
       inkscape:connector-curvature="0"
       style="fill:#9fa1e4" />
    <path
       id="path5066"
       d="m 225.1,448.59 c 5.28,-0.2 10.56,-0.27 15.84,-0.41 5.28,-0.14 10.57,-0.17 15.85,-0.15 -5.28,0.2 -10.56,0.26 -15.84,0.4 -5.28,0.14 -10.56,0.17 -15.85,0.16 z m 33.03,0.31 c 0.26,-0.63 0.5,-1.31 0.8,-2 v -0.05 h 2.61 l -0.09,0.18 -0.94,2 v 0.06 h -0.06 z m 0,0 h 2.31 l -0.09,0.06 0.89,-2 0.12,0.18 h -2.34 l 0.08,-0.05 z m -28.66,-4.03 c 5.27,-0.2 10.56,-0.27 15.84,-0.41 5.28,-0.14 10.56,-0.17 15.84,-0.15 -5.28,0.2 -10.56,0.26 -15.84,0.4 -5.28,0.14 -10.56,0.17 -15.84,0.16 z m 33.02,0.31 c 0.26,-0.63 0.51,-1.31 0.8,-2 v -0.05 h 2.6 l -0.09,0.18 -0.94,2 v 0.06 h -0.07 z m 0,0 h 2.32 l -0.09,0.06 0.89,-2 0.11,0.18 h -2.34 l 0.08,-0.05 z m -29.04,-4.03 c 5.28,-0.2 10.57,-0.27 15.85,-0.41 5.28,-0.14 10.56,-0.17 15.84,-0.16 -5.28,0.21 -10.56,0.27 -15.84,0.41 -5.28,0.14 -10.56,0.17 -15.85,0.16 z m 33.03,0.31 c 0.26,-0.63 0.51,-1.31 0.8,-2 v -0.05 h 2.61 l -0.09,0.18 -0.94,2 v 0.06 h -0.06 z m 0,0 h 2.32 l -0.09,0.06 0.89,-2 0.11,0.18 h -2.34 l 0.08,-0.05 z m -29.77,-4.03 c 5.28,-0.2 10.56,-0.27 15.84,-0.41 5.28,-0.14 10.57,-0.17 15.85,-0.16 -5.28,0.21 -10.56,0.27 -15.84,0.41 -5.28,0.14 -10.56,0.17 -15.85,0.16 z m 33.03,0.31 c 0.26,-0.63 0.5,-1.31 0.8,-2 v -0.05 h 2.61 l -0.09,0.17 -0.94,2 v 0.06 h -0.06 z m 0,0 h 2.31 l -0.09,0.06 0.89,-2 0.12,0.18 h -2.34 l 0.08,-0.05 z m -29.36,-4.03 c 5.28,-0.2 10.56,-0.27 15.84,-0.41 5.28,-0.14 10.57,-0.17 15.85,-0.16 -5.28,0.21 -10.56,0.27 -15.84,0.41 -5.28,0.14 -10.56,0.17 -15.85,0.16 z m 33.03,0.29 c 0.26,-0.63 0.5,-1.31 0.8,-2 h 2.61 l -0.09,0.17 -0.94,2 v 0.06 h -0.06 z m 0,0 h 2.31 l -0.09,0.06 0.89,-2 0.12,0.18 h -2.34 l 0.08,-0.05 z m -29.61,-4 c 5.28,-0.2 10.56,-0.27 15.84,-0.41 5.28,-0.14 10.57,-0.17 15.85,-0.16 -5.28,0.21 -10.56,0.27 -15.84,0.41 -5.28,0.14 -10.57,0.16 -15.85,0.16 z m 33.03,0.3 c 0.25,-0.63 0.5,-1.31 0.8,-2 v -0.05 h 2.6 l -0.08,0.17 -0.94,2 v 0.06 h -0.06 z m 0,0 h 2.31 l -0.09,0.06 0.89,-2 0.12,0.18 h -2.35 l 0.09,-0.05 z M 247,426.27 c 5.27,-0.2 10.56,-0.27 15.84,-0.41 5.28,-0.14 10.56,-0.17 15.84,-0.16 -5.28,0.21 -10.56,0.27 -15.84,0.41 -5.28,0.14 -10.57,0.17 -15.84,0.16 z m 33,0.31 c 0.26,-0.63 0.51,-1.31 0.8,-2 h 2.6 l -0.09,0.17 -0.94,2 v 0.06 h -0.07 z m 0,0 h 2.32 -0.09 l 0.89,-2 0.11,0.18 h -2.34 l 0.08,-0.05 z m -29.49,-4.03 c 5.28,-0.2 10.56,-0.27 15.84,-0.41 5.28,-0.14 10.56,-0.17 15.85,-0.16 -5.28,0.21 -10.57,0.27 -15.85,0.41 -5.28,0.14 -10.56,0.17 -15.84,0.16 z m 33.02,0.31 c 0.26,-0.63 0.51,-1.31 0.8,-2 v -0.06 h 2.6 l -0.08,0.17 -0.94,2 v 0.06 h -0.07 z m 0,0 h 2.32 l -0.09,0.05 0.89,-2 0.11,0.18 h -2.34 l 0.09,-0.05 z m -30.11,-4.03 c 5.28,-0.2 10.56,-0.27 15.84,-0.41 5.28,-0.14 10.57,-0.17 15.85,-0.16 -5.28,0.21 -10.56,0.27 -15.84,0.41 -5.28,0.14 -10.56,0.17 -15.85,0.16 z m 33.03,0.3 c 0.26,-0.62 0.5,-1.3 0.8,-2 v -0.06 h 2.61 l -0.09,0.17 -0.94,2 v 0.06 h -0.06 z m 0,0 h 2.31 -0.09 l 0.89,-2 0.12,0.18 h -2.34 0.08 z M 257,415.11 c 5.28,-0.2 10.57,-0.27 15.85,-0.41 5.28,-0.14 10.56,-0.17 15.84,-0.16 -5.28,0.21 -10.56,0.27 -15.84,0.41 -5.28,0.14 -10.54,0.17 -15.85,0.16 z m 33.05,0.3 c 0.26,-0.62 0.51,-1.3 0.8,-2 v -0.06 h 2.6 l -0.09,0.17 -0.94,2 v 0.06 h -0.06 z m 0,0 h 2.32 l -0.09,0.05 0.89,-2 0.11,0.18 h -2.34 l 0.08,-0.05 z m -28.69,-4.02 c 5.28,-0.2 10.56,-0.27 15.84,-0.41 5.28,-0.14 10.56,-0.17 15.85,-0.16 -5.28,0.21 -10.57,0.27 -15.85,0.41 -5.28,0.14 -10.56,0.17 -15.84,0.16 z m 33.02,0.3 c 0.26,-0.62 0.51,-1.3 0.8,-2 v -0.06 h 2.6 l -0.08,0.17 -0.94,2 v 0.06 h -0.07 z m 0,0 h 2.32 -0.09 l 0.89,-2 0.11,0.18 h -2.34 0.09 z m -28.97,-4.02 c 5.28,-0.2 10.56,-0.27 15.84,-0.41 5.28,-0.14 10.56,-0.17 15.84,-0.16 -5.27,0.21 -10.56,0.27 -15.84,0.41 -5.28,0.14 -10.56,0.17 -15.84,0.16 z m 33.02,0.33 c 0.26,-0.62 0.51,-1.3 0.8,-2 v -0.06 h 2.6 l -0.08,0.18 -0.94,2 v 0.06 h -0.07 z m 0,0 h 2.32 l -0.09,0.05 0.89,-2 0.11,0.18 h -2.34 l 0.09,-0.05 z"
       inkscape:connector-curvature="0"
       style="fill:#a6a6a6" />
    <path
       id="path5068"
       d="m 271.46,404.33 45,-0.78 c 12.81,-0.23 20.8,14.29 28.53,28.32 6.78,12.31 13.19,23.95 22.16,23.79 l -45,0.79 c -9,0.15 -15.38,-11.48 -22.16,-23.79 -7.73,-14.04 -15.72,-28.55 -28.53,-28.33 z"
       inkscape:connector-curvature="0"
       style="fill:#ebebeb" />
    <path
       id="path5070"
       d="m 361.1,445.68 45,-0.79 c -9.79,0.17 -15.72,3 -21.45,5.77 -5.21,2.51 -10.14,4.87 -17.48,5 l -45,0.79 c 7.35,-0.13 12.27,-2.49 17.48,-5 5.73,-2.75 11.66,-5.6 21.45,-5.77 z"
       inkscape:connector-curvature="0"
       style="fill:#c7c7c7" />
    <path
       id="path5072"
       d="m 338,454.41 c 4.61,-0.2 9.23,-0.27 13.84,-0.41 4.61,-0.14 9.23,-0.17 13.85,-0.15 -4.61,0.2 -9.23,0.26 -13.84,0.4 -4.61,0.14 -9.24,0.17 -13.85,0.16 z m 29,0.31 c 0.25,-0.63 0.5,-1.31 0.8,-2 v -0.05 h 2.6 l -0.08,0.18 -0.94,2 v 0.06 h -0.06 z m 0,0 h 2.31 l -0.09,0.06 0.89,-2 0.11,0.18 h -2.34 l 0.09,-0.05 z m -21.68,-3.33 c 4.78,-0.2 9.56,-0.26 14.34,-0.4 4.78,-0.14 9.56,-0.17 14.35,-0.16 -4.78,0.2 -9.57,0.27 -14.35,0.41 -4.78,0.14 -9.56,0.17 -14.34,0.15 z m 30.02,0.31 c 0.26,-0.62 0.51,-1.3 0.8,-2 v -0.06 h 2.6 l -0.08,0.18 -0.94,2 v 0.07 h -0.07 z m 0,0 h 2.32 l -0.09,0.05 0.89,-2 0.11,0.17 h -2.34 l 0.09,-0.06 z m -21.89,-3.11 c 4.78,-0.2 9.56,-0.27 14.34,-0.41 4.78,-0.14 9.56,-0.17 14.35,-0.15 -4.78,0.2 -9.56,0.26 -14.34,0.4 -4.78,0.14 -9.57,0.17 -14.35,0.16 z m 30.03,0.31 c 0.25,-0.63 0.5,-1.31 0.8,-2 v -0.05 h 2.6 l -0.08,0.18 -0.94,2 v 0.06 h -0.06 z m 0,0 h 2.31 l -0.09,0.06 0.89,-2 0.11,0.18 h -2.34 l 0.09,-0.05 z"
       inkscape:connector-curvature="0"
       style="fill:#a6a6a6" />
    <path
       id="path5074"
       d="m 361.09,445.68 45,-0.79 c 4.74,-0.08 28.85,10.69 29.87,11.15 l -45,0.78 c -1.02,-0.46 -25.12,-11.22 -29.87,-11.14 z"
       inkscape:connector-curvature="0"
       style="fill:#ebebeb" />
    <path
       id="path5076"
       d="m 241.27,101.74 a 22.61,22.61 0 0 1 -37.79,14.31 l -11.32,1.66 5.66,-9.78 a 22.62,22.62 0 1 1 43.45,-6.19 z"
       inkscape:connector-curvature="0"
       style="fill:#ffffff" />
    <path
       id="path5078"
       d="m 241.27,101.74 a 22.89,22.89 0 0 1 -4.57,11.47 25.48,25.48 0 0 1 -2,2.36 24.09,24.09 0 0 1 -2.39,2 22.24,22.24 0 0 1 -5.45,3 22.83,22.83 0 0 1 -6.09,1.45 22,22 0 0 1 -3.14,0.06 20.5,20.5 0 0 1 -3.13,-0.32 22.81,22.81 0 0 1 -11.19,-5.53 l 0.26,0.08 -11.3,1.74 -0.82,0.12 0.41,-0.72 5.63,-9.8 v 0.39 a 22.83,22.83 0 0 1 1.39,-20.16 23.24,23.24 0 0 1 7.08,-7.55 22.85,22.85 0 0 1 35.38,21.35 z m 0,0 a 22.37,22.37 0 0 0 -25.65,-24.47 22.17,22.17 0 0 0 -9.35,3.73 23.39,23.39 0 0 0 -6.76,7.38 22.31,22.31 0 0 0 -1.28,19.42 l 0.08,0.2 -0.11,0.19 -5.69,9.76 -0.41,-0.59 11.33,-1.59 h 0.16 l 0.11,0.1 a 22.28,22.28 0 0 0 10.83,5.58 19.65,19.65 0 0 0 3.07,0.37 21.25,21.25 0 0 0 3.09,0 22.37,22.37 0 0 0 6,-1.33 21.33,21.33 0 0 0 5.46,-2.94 26.64,26.64 0 0 0 2.39,-2 25.12,25.12 0 0 0 2,-2.33 22.8,22.8 0 0 0 4.73,-11.48 z"
       inkscape:connector-curvature="0"
       style="fill:#263238" />
    <path
       style="fill:#ffb400;fill-opacity:1"
       id="path5080"
       d="m 216.12,112.29 -9.66,-9.78 3.25,-3.2 5.64,5.71 11.72,-18.38 3.85,2.45 z"
       inkscape:connector-curvature="0" />
  </g>
</svg>
