<svg xmlns="http://www.w3.org/2000/svg" width="975.415" height="1809.877" viewBox="0 0 258.079 478.863"><path fill="#ffb400" d="M160.278 203.354c-6.3 7.015-11.454 14.684-18.884 20.424-18.368 14.189-38.215 18.73-60.036 9.913-7.405-2.992-13.228-2.381-19.27 2.548-10.831 8.838-22.838 16.013-34.459 23.73-1.922 1.277-3.82 3.39-6.185 1.931-2.835-1.75-2.043-4.789-1.293-7.394 1.516-5.266 4.102-10.076 7.027-14.667 6.678-10.485 13.396-20.947 20.272-31.303 2.5-3.765 3.523-7.12 1.95-11.85-3.43-10.31-2.29-20.748 1.56-30.823 8.325-21.785 22.62-38.862 42.03-51.509 13.653-8.896 30.7-8.395 42.868.39 2.547 1.838 5.45 3.68 4.559 7.365-.75 3.102-3.834 3.543-6.472 4.156-25.676 5.97-37.824 23.963-42.434 48.292-1.81 9.555-4.841 18.566-10.658 27.649 15.547 2.012 29.235 1.08 42.247-4.655 11.181-4.927 17.884-13.592 18.48-26.07.54-11.317 3.84-21.127 12.072-29.384 7.053-7.074 8.937-15.661 5.917-25.616-2.708-8.926-.082-11.505 9.08-9.466 18.595 4.137 33.913 14.383 45.15 29.187 19.785 26.068 30.804 55.936 29.919 88.886-.657 24.444-9.46 47.09-21.126 68.448-4.646 8.505-11.019 26.49-11.019 26.49-2.73 4.112-7.908 23.555-7.908 23.555-15.728 34.226-69.067 29.212-94.122 50.203-43.016 36.78-69.564 44.894-89.187 37.088-11.323-15.628-5.626-34.941 7.883-59.175 10.394-18.648 25.362-33.312 41.139-47.232 17.54-15.475 37.262-27.979 56.614-40.972 10.046-6.745 19.522-14.127 26.915-23.836 10.593-13.911 15.147-29.389 11.934-46.844-.622-3.378-1.49-6.586-4.563-9.459z"/><path fill="red" d="M93.835 88.93c-4.858 1.962-8.455.317-12.047-.531-7.504-1.774-14.984-3.645-22.48-5.452-4.527-1.091-9.04-2.027-13.666-.307-2.998 1.115-6.092.75-9.138.048-6.527-1.503-11.265-4.952-12.72-11.878-1.343-6.392 1.155-13.056 6.354-16.223 6.194-3.774 12.49-3.496 18.598.305 1.288.802 2.854 1.797 3.383 3.078 5.485 13.303 18.453 16.437 29.579 22.12 4.214 2.152 9.168 3.487 12.137 8.84z"/><path fill="#f60" d="M106.924 76.763C96.816 72.87 91.678 66.946 85.91 62.078c-7.68-6.48-14.888-12.897-25.478-14.997-9.302-1.845-13.292-8.806-12.27-16.96.924-7.365 6.41-12.652 13.884-13.38 8.054-.785 16.21 3.763 17.143 12.308 1.334 12.222 9.067 20.075 15.597 29.013 3.818 5.226 8.513 9.912 12.14 18.701z"/><path fill="#f0f" d="M171.318 89.872c1.36-5.457 5.853-5.674 9.036-7.307 5.146-2.64 10.56-4.779 15.933-6.953 4.356-1.763 7.861-3.917 10.21-8.536 3.453-6.793 9.859-9.54 17.454-9.14 7.977.418 13.339 5.14 14.427 12.533 1.123 7.63-3.295 14.844-10.617 17.273-3.384 1.123-7.238 1.825-10.266.43-8.886-4.094-17.341-1.129-26.022.301-6.527 1.075-13.104 3.72-20.155 1.399z"/><path fill="green" d="M136.847 69.982c-.27-8.569 3.198-16.432 5.44-24.471 2.085-7.481 3.894-14.396.702-22.36-2.901-7.236.372-14.646 5.929-18.504 6.48-4.5 16.107-3.396 21.116 2.42 5.32 6.177 5.64 17.247-1.562 21.806-12.086 7.652-16.03 20.194-22.566 31.297-2.102 3.57-4.34 7.059-6.515 10.585l-2.544-.773z"/><path fill="#00f" d="M155.507 76.895c-1.29-3.375 1.485-4.957 3.065-6.916 3.894-4.833 7.815-9.664 12.013-14.23 4.293-4.67 6.775-9.55 7.654-16.237 1.825-13.892 17.054-19.287 27.239-10.415 8.303 7.233 7.176 18.786-2.388 24.31-1.006.582-2.07 1.433-3.138 1.484-15.557.734-25.719 11.538-37.22 19.827-2.179 1.57-4.19 3.468-7.225 2.177z"/><path fill="#fc0" d="M119.553 65.755c-5.266-4.224-5.44-9.964-7.377-14.87-3.627-9.187-5.4-19.06-14.137-25.907-5.705-4.471-5.649-13.883-1.882-19.192 3.866-5.448 14.26-7.498 21.26-4.193 5.939 2.804 10.06 9.793 6.635 16.613-6.218 12.38-3.478 24.503-2.426 36.942.272 3.204 1.344 6.903-2.073 10.607z"/><path fill="#ffb400" d="M112.961 162.869c6.797.154 11.67 5.01 11.77 11.73.107 7.113-5.182 12.355-12.443 12.332-6.953-.02-11.5-4.609-11.579-11.682-.083-7.414 4.996-12.545 12.252-12.38z"/><g fill="#ffb400" stroke-width=".235" aria-label="Peacocko" font-family="Open Sans" font-size="50.113" font-weight="700" letter-spacing="0" style="line-height:1.25;-inkscape-font-specification:'Bukhari Script'" word-spacing="0" writing-mode="tb-rl"><path d="M-396.908-524.773q-2.447 0-4.796-.856-2.325-.857-3.915-2.447-2.153-2.178-3.255-4.87-1.1-2.667-1.1-6.656v-5.848h-11.868v-9.396h36.435v15.465q0 3.474-.612 5.848-.587 2.398-1.786 4.233-1.444 2.202-3.695 3.352-2.251 1.175-5.408 1.175zm-.22-9.714q1.541 0 2.642-.832 1.126-.832 1.566-1.933.588-1.469.637-2.863.073-1.395.073-3.72v-1.615h-10.913v2.692q0 2.398.293 3.94.294 1.566 1.175 2.618.783.905 1.86 1.297 1.1.416 2.667.416zM-409.73-491.544v-20.162q-3.23.195-4.943 2.447-1.713 2.275-1.713 6.68 0 2.79 1.004 5.407 1.003 2.619 2.153 4.136v.979h-7.072q-1.199-2.986-1.737-5.628-.538-2.643-.538-5.849 0-8.27 3.719-12.675 3.72-4.404 10.595-4.404 6.803 0 10.767 4.16 3.988 4.184 3.988 11.451 0 6.705-3.401 10.082-3.377 3.376-9.739 3.376zm5.163-8.76q2.765-.073 4.16-1.37 1.395-1.297 1.395-4.037 0-2.545-1.322-4.185-1.321-1.64-4.233-1.835zM-414.673-468.69h5.726q-.147-1.785-.416-3.865-.245-2.08-.587-3.157-.416-1.321-1.224-2.03-.783-.686-2.08-.686-.856 0-1.394.147-.539.147-1.028.734-.49.563-.734 1.346-.22.783-.22 2.447 0 1.321.538 2.667.538 1.37 1.42 2.398zm-4.257 0q-.539-.709-1.297-1.761-.759-1.052-1.2-1.982-.587-1.297-.856-2.692-.293-1.394-.293-3.058 0-3.915 2.422-6.558 2.423-2.643 6.19-2.643 3.01 0 4.92 1.346 1.908 1.346 3.009 3.817 1.101 2.447 1.566 6.069.465 3.621.685 7.512h.147q2.276 0 3.132-1.86.88-1.86.88-5.481 0-2.178-.782-4.65-.759-2.47-1.175-3.547v-.808h6.632q.367 1.395.856 4.527.514 3.157.514 6.313 0 7.512-2.325 10.84-2.3 3.352-7.243 3.352h-18.694v-8.735zM-422.576-437.54q0-3.597.856-6.582.856-2.96 2.643-5.163 1.786-2.178 4.502-3.377 2.716-1.199 6.362-1.199 3.842 0 6.631 1.273 2.79 1.296 4.625 3.597 1.737 2.226 2.545 5.138.807 2.912.807 6.044 0 2.814-.611 5.188-.612 2.373-1.59 4.429h-7.513v-1.248q.44-.514 1.028-1.248.587-.71 1.15-1.762.538-1.003.88-2.202.368-1.2.368-2.79 0-3.523-2.251-5.432-2.227-1.884-6.069-1.884-3.964 0-6.02 1.933-2.055 1.957-2.055 5.53 0 1.664.367 2.985.392 1.346.906 2.227.489.832 1.027 1.468.539.636 1.053 1.175v1.248h-7.513q-.978-2.08-1.541-4.356-.587-2.251-.587-4.992zM-408.115-394.278q-6.778 0-10.693-3.964-3.89-3.94-3.89-11.085 0-7.145 3.89-11.109 3.915-3.94 10.693-3.94 6.827 0 10.718 3.965 3.89 3.988 3.89 11.084 0 7.194-3.915 11.11-3.915 3.94-10.693 3.94zm-6.68-10.84q1.052.857 2.52 1.273 1.493.44 4.111.44 2.423 0 4.062-.44 1.64-.44 2.618-1.224 1.003-.783 1.42-1.884.415-1.101.415-2.374 0-1.272-.342-2.275-.343-.979-1.37-1.884-.955-.808-2.619-1.297-1.664-.465-4.184-.465-2.251 0-3.915.416-1.64.416-2.643 1.223-.954.783-1.394 1.86-.44 1.101-.44 2.496 0 1.199.39 2.276.417 1.1 1.37 1.86zM-422.576-373.65q0-3.597.856-6.582.856-2.961 2.643-5.163 1.786-2.178 4.502-3.377 2.716-1.2 6.362-1.2 3.842 0 6.631 1.273 2.79 1.297 4.625 3.597 1.737 2.227 2.545 5.139.807 2.912.807 6.044 0 2.814-.611 5.187-.612 2.374-1.59 4.43h-7.513v-1.249q.44-.514 1.028-1.248.587-.71 1.15-1.762.538-1.003.88-2.202.368-1.199.368-2.79 0-3.523-2.251-5.431-2.227-1.885-6.069-1.885-3.964 0-6.02 1.933-2.055 1.958-2.055 5.53 0 1.664.367 2.986.392 1.346.906 2.227.489.831 1.027 1.468.539.636 1.053 1.174v1.248h-7.513q-.978-2.08-1.541-4.355-.587-2.252-.587-4.992zM-421.842-329.312v-10.252l11.965-7.708-2.912-2.398h-9.053v-8.81h38.074v8.81H-406.5l12.137 9.494v10.155l-11.843-9.886zM-408.115-296.767q-6.778 0-10.693-3.964-3.89-3.94-3.89-11.085 0-7.145 3.89-11.11 3.915-3.939 10.693-3.939 6.827 0 10.718 3.964 3.89 3.989 3.89 11.085 0 7.194-3.915 11.11-3.915 3.939-10.693 3.939zm-6.68-10.84q1.052.856 2.52 1.272 1.493.44 4.111.44 2.423 0 4.062-.44 1.64-.44 2.618-1.223 1.003-.783 1.42-1.884.415-1.102.415-2.374t-.342-2.276q-.343-.978-1.37-1.884-.955-.807-2.619-1.297-1.664-.465-4.184-.465-2.251 0-3.915.416-1.64.416-2.643 1.224-.954.783-1.394 1.86-.44 1.1-.44 2.495 0 1.2.39 2.276.417 1.101 1.37 1.86z" style="-inkscape-font-specification:'Open Sans, Bold'" transform="rotate(-90 305.505 -249.34)"/></g></svg>